<mxfile host="app.diagrams.net" modified="2022-12-01T03:33:39.201Z" agent="5.0 (X11; Linux x86_64) AppleWebKit/537.36 (KHTML, like Gecko) Chrome/108.0.0.0 Safari/537.36" etag="nd_eI2d_W7rpWQTt8XXE" version="20.6.0" type="github" pages="3">
  <diagram id="R2lEEEUBdFMjLlhIrx00" name="Page-1">
    <mxGraphModel dx="1988" dy="1165" grid="1" gridSize="10" guides="1" tooltips="1" connect="1" arrows="1" fold="1" page="1" pageScale="1" pageWidth="850" pageHeight="1100" math="0" shadow="0" extFonts="Permanent Marker^https://fonts.googleapis.com/css?family=Permanent+Marker">
      <root>
        <mxCell id="0" />
        <mxCell id="1" parent="0" />
        <mxCell id="tLVuO6Sy8GR1sA5QQaV8-2" value="match" style="rounded=0;whiteSpace=wrap;html=1;" parent="1" vertex="1">
          <mxGeometry x="140" y="190" width="120" height="60" as="geometry" />
        </mxCell>
        <mxCell id="tLVuO6Sy8GR1sA5QQaV8-14" style="edgeStyle=orthogonalEdgeStyle;rounded=0;orthogonalLoop=1;jettySize=auto;html=1;entryX=0;entryY=0.5;entryDx=0;entryDy=0;" parent="1" source="tLVuO6Sy8GR1sA5QQaV8-4" target="tLVuO6Sy8GR1sA5QQaV8-2" edge="1">
          <mxGeometry relative="1" as="geometry" />
        </mxCell>
        <mxCell id="tLVuO6Sy8GR1sA5QQaV8-4" value="series" style="ellipse;whiteSpace=wrap;html=1;aspect=fixed;" parent="1" vertex="1">
          <mxGeometry x="40" y="30" width="40" height="40" as="geometry" />
        </mxCell>
        <mxCell id="tLVuO6Sy8GR1sA5QQaV8-17" style="edgeStyle=orthogonalEdgeStyle;rounded=0;orthogonalLoop=1;jettySize=auto;html=1;entryX=0;entryY=0.5;entryDx=0;entryDy=0;" parent="1" source="tLVuO6Sy8GR1sA5QQaV8-5" target="tLVuO6Sy8GR1sA5QQaV8-2" edge="1">
          <mxGeometry relative="1" as="geometry" />
        </mxCell>
        <mxCell id="tLVuO6Sy8GR1sA5QQaV8-5" value="tournament day" style="ellipse;whiteSpace=wrap;html=1;aspect=fixed;" parent="1" vertex="1">
          <mxGeometry x="40" y="90" width="40" height="40" as="geometry" />
        </mxCell>
        <mxCell id="tLVuO6Sy8GR1sA5QQaV8-18" style="edgeStyle=orthogonalEdgeStyle;rounded=0;orthogonalLoop=1;jettySize=auto;html=1;entryX=0;entryY=0.5;entryDx=0;entryDy=0;" parent="1" source="tLVuO6Sy8GR1sA5QQaV8-7" target="tLVuO6Sy8GR1sA5QQaV8-2" edge="1">
          <mxGeometry relative="1" as="geometry" />
        </mxCell>
        <mxCell id="tLVuO6Sy8GR1sA5QQaV8-7" value="number of match" style="ellipse;whiteSpace=wrap;html=1;aspect=fixed;" parent="1" vertex="1">
          <mxGeometry x="40" y="150" width="40" height="40" as="geometry" />
        </mxCell>
        <mxCell id="tLVuO6Sy8GR1sA5QQaV8-23" style="edgeStyle=orthogonalEdgeStyle;rounded=0;orthogonalLoop=1;jettySize=auto;html=1;exitX=1;exitY=0.5;exitDx=0;exitDy=0;entryX=0;entryY=0.5;entryDx=0;entryDy=0;" parent="1" source="tLVuO6Sy8GR1sA5QQaV8-8" target="tLVuO6Sy8GR1sA5QQaV8-2" edge="1">
          <mxGeometry relative="1" as="geometry" />
        </mxCell>
        <mxCell id="tLVuO6Sy8GR1sA5QQaV8-8" value="day" style="ellipse;whiteSpace=wrap;html=1;aspect=fixed;" parent="1" vertex="1">
          <mxGeometry x="40" y="210" width="40" height="40" as="geometry" />
        </mxCell>
        <mxCell id="tLVuO6Sy8GR1sA5QQaV8-24" style="edgeStyle=orthogonalEdgeStyle;rounded=0;orthogonalLoop=1;jettySize=auto;html=1;exitX=1;exitY=0.5;exitDx=0;exitDy=0;entryX=0;entryY=0.5;entryDx=0;entryDy=0;" parent="1" source="tLVuO6Sy8GR1sA5QQaV8-9" target="tLVuO6Sy8GR1sA5QQaV8-2" edge="1">
          <mxGeometry relative="1" as="geometry" />
        </mxCell>
        <mxCell id="tLVuO6Sy8GR1sA5QQaV8-9" value="month" style="ellipse;whiteSpace=wrap;html=1;aspect=fixed;" parent="1" vertex="1">
          <mxGeometry x="40" y="270" width="40" height="40" as="geometry" />
        </mxCell>
        <mxCell id="tLVuO6Sy8GR1sA5QQaV8-25" style="edgeStyle=orthogonalEdgeStyle;rounded=0;orthogonalLoop=1;jettySize=auto;html=1;exitX=1;exitY=0.5;exitDx=0;exitDy=0;entryX=0;entryY=0.5;entryDx=0;entryDy=0;" parent="1" source="tLVuO6Sy8GR1sA5QQaV8-11" target="tLVuO6Sy8GR1sA5QQaV8-2" edge="1">
          <mxGeometry relative="1" as="geometry" />
        </mxCell>
        <mxCell id="tLVuO6Sy8GR1sA5QQaV8-11" value="city" style="ellipse;whiteSpace=wrap;html=1;aspect=fixed;" parent="1" vertex="1">
          <mxGeometry x="40" y="390" width="40" height="40" as="geometry" />
        </mxCell>
        <mxCell id="tLVuO6Sy8GR1sA5QQaV8-26" value="player" style="rounded=0;whiteSpace=wrap;html=1;" parent="1" vertex="1">
          <mxGeometry x="870" y="170" width="120" height="60" as="geometry" />
        </mxCell>
        <mxCell id="tLVuO6Sy8GR1sA5QQaV8-27" style="edgeStyle=orthogonalEdgeStyle;rounded=0;orthogonalLoop=1;jettySize=auto;html=1;entryX=0;entryY=0.5;entryDx=0;entryDy=0;" parent="1" source="tLVuO6Sy8GR1sA5QQaV8-28" target="tLVuO6Sy8GR1sA5QQaV8-26" edge="1">
          <mxGeometry relative="1" as="geometry" />
        </mxCell>
        <mxCell id="tLVuO6Sy8GR1sA5QQaV8-28" value="name" style="ellipse;whiteSpace=wrap;html=1;aspect=fixed;" parent="1" vertex="1">
          <mxGeometry x="750" y="40" width="40" height="40" as="geometry" />
        </mxCell>
        <mxCell id="tLVuO6Sy8GR1sA5QQaV8-29" style="edgeStyle=orthogonalEdgeStyle;rounded=0;orthogonalLoop=1;jettySize=auto;html=1;entryX=0;entryY=0.5;entryDx=0;entryDy=0;" parent="1" source="tLVuO6Sy8GR1sA5QQaV8-30" target="tLVuO6Sy8GR1sA5QQaV8-26" edge="1">
          <mxGeometry relative="1" as="geometry" />
        </mxCell>
        <mxCell id="tLVuO6Sy8GR1sA5QQaV8-30" value="surname" style="ellipse;whiteSpace=wrap;html=1;aspect=fixed;" parent="1" vertex="1">
          <mxGeometry x="750" y="100" width="40" height="40" as="geometry" />
        </mxCell>
        <mxCell id="tLVuO6Sy8GR1sA5QQaV8-31" style="edgeStyle=orthogonalEdgeStyle;rounded=0;orthogonalLoop=1;jettySize=auto;html=1;entryX=0;entryY=0.5;entryDx=0;entryDy=0;" parent="1" source="tLVuO6Sy8GR1sA5QQaV8-32" target="tLVuO6Sy8GR1sA5QQaV8-26" edge="1">
          <mxGeometry relative="1" as="geometry" />
        </mxCell>
        <mxCell id="tLVuO6Sy8GR1sA5QQaV8-32" value="date of birth" style="ellipse;whiteSpace=wrap;html=1;aspect=fixed;" parent="1" vertex="1">
          <mxGeometry x="750" y="160" width="40" height="40" as="geometry" />
        </mxCell>
        <mxCell id="tLVuO6Sy8GR1sA5QQaV8-33" style="edgeStyle=orthogonalEdgeStyle;rounded=0;orthogonalLoop=1;jettySize=auto;html=1;exitX=1;exitY=0.5;exitDx=0;exitDy=0;entryX=0;entryY=0.5;entryDx=0;entryDy=0;" parent="1" source="tLVuO6Sy8GR1sA5QQaV8-34" target="tLVuO6Sy8GR1sA5QQaV8-26" edge="1">
          <mxGeometry relative="1" as="geometry" />
        </mxCell>
        <mxCell id="tLVuO6Sy8GR1sA5QQaV8-34" value="main position" style="ellipse;whiteSpace=wrap;html=1;aspect=fixed;" parent="1" vertex="1">
          <mxGeometry x="750" y="220" width="40" height="40" as="geometry" />
        </mxCell>
        <mxCell id="tLVuO6Sy8GR1sA5QQaV8-35" style="edgeStyle=orthogonalEdgeStyle;rounded=0;orthogonalLoop=1;jettySize=auto;html=1;exitX=1;exitY=0.5;exitDx=0;exitDy=0;entryX=0;entryY=0.5;entryDx=0;entryDy=0;" parent="1" source="tLVuO6Sy8GR1sA5QQaV8-36" target="tLVuO6Sy8GR1sA5QQaV8-26" edge="1">
          <mxGeometry relative="1" as="geometry" />
        </mxCell>
        <mxCell id="tLVuO6Sy8GR1sA5QQaV8-36" value="city of birth" style="ellipse;whiteSpace=wrap;html=1;aspect=fixed;" parent="1" vertex="1">
          <mxGeometry x="750" y="280" width="40" height="40" as="geometry" />
        </mxCell>
        <mxCell id="tLVuO6Sy8GR1sA5QQaV8-39" value="coach" style="rounded=0;whiteSpace=wrap;html=1;" parent="1" vertex="1">
          <mxGeometry x="1060" y="930" width="120" height="60" as="geometry" />
        </mxCell>
        <mxCell id="tLVuO6Sy8GR1sA5QQaV8-40" style="edgeStyle=orthogonalEdgeStyle;rounded=0;orthogonalLoop=1;jettySize=auto;html=1;entryX=0;entryY=0.5;entryDx=0;entryDy=0;" parent="1" source="tLVuO6Sy8GR1sA5QQaV8-41" target="tLVuO6Sy8GR1sA5QQaV8-39" edge="1">
          <mxGeometry relative="1" as="geometry" />
        </mxCell>
        <mxCell id="tLVuO6Sy8GR1sA5QQaV8-41" value="name" style="ellipse;whiteSpace=wrap;html=1;aspect=fixed;" parent="1" vertex="1">
          <mxGeometry x="960" y="880" width="40" height="40" as="geometry" />
        </mxCell>
        <mxCell id="tLVuO6Sy8GR1sA5QQaV8-42" style="edgeStyle=orthogonalEdgeStyle;rounded=0;orthogonalLoop=1;jettySize=auto;html=1;entryX=0;entryY=0.5;entryDx=0;entryDy=0;" parent="1" source="tLVuO6Sy8GR1sA5QQaV8-43" target="tLVuO6Sy8GR1sA5QQaV8-39" edge="1">
          <mxGeometry relative="1" as="geometry" />
        </mxCell>
        <mxCell id="tLVuO6Sy8GR1sA5QQaV8-43" value="salary" style="ellipse;whiteSpace=wrap;html=1;aspect=fixed;" parent="1" vertex="1">
          <mxGeometry x="960" y="940" width="40" height="40" as="geometry" />
        </mxCell>
        <mxCell id="tLVuO6Sy8GR1sA5QQaV8-44" style="edgeStyle=orthogonalEdgeStyle;rounded=0;orthogonalLoop=1;jettySize=auto;html=1;entryX=0;entryY=0.5;entryDx=0;entryDy=0;" parent="1" target="tLVuO6Sy8GR1sA5QQaV8-39" edge="1">
          <mxGeometry relative="1" as="geometry">
            <mxPoint x="1000" y="1020" as="sourcePoint" />
          </mxGeometry>
        </mxCell>
        <mxCell id="tLVuO6Sy8GR1sA5QQaV8-45" value="city of birth" style="ellipse;whiteSpace=wrap;html=1;aspect=fixed;" parent="1" vertex="1">
          <mxGeometry x="960" y="1000" width="40" height="40" as="geometry" />
        </mxCell>
        <mxCell id="tLVuO6Sy8GR1sA5QQaV8-61" value="referee" style="rounded=0;whiteSpace=wrap;html=1;" parent="1" vertex="1">
          <mxGeometry x="140" y="620" width="120" height="60" as="geometry" />
        </mxCell>
        <mxCell id="tLVuO6Sy8GR1sA5QQaV8-62" style="edgeStyle=orthogonalEdgeStyle;rounded=0;orthogonalLoop=1;jettySize=auto;html=1;entryX=0;entryY=0.5;entryDx=0;entryDy=0;" parent="1" source="tLVuO6Sy8GR1sA5QQaV8-63" target="tLVuO6Sy8GR1sA5QQaV8-61" edge="1">
          <mxGeometry relative="1" as="geometry" />
        </mxCell>
        <mxCell id="tLVuO6Sy8GR1sA5QQaV8-63" value="first name" style="ellipse;whiteSpace=wrap;html=1;aspect=fixed;" parent="1" vertex="1">
          <mxGeometry x="40" y="540" width="40" height="40" as="geometry" />
        </mxCell>
        <mxCell id="tLVuO6Sy8GR1sA5QQaV8-64" style="edgeStyle=orthogonalEdgeStyle;rounded=0;orthogonalLoop=1;jettySize=auto;html=1;entryX=0;entryY=0.5;entryDx=0;entryDy=0;" parent="1" source="tLVuO6Sy8GR1sA5QQaV8-65" target="tLVuO6Sy8GR1sA5QQaV8-61" edge="1">
          <mxGeometry relative="1" as="geometry" />
        </mxCell>
        <mxCell id="tLVuO6Sy8GR1sA5QQaV8-65" value="surname" style="ellipse;whiteSpace=wrap;html=1;aspect=fixed;" parent="1" vertex="1">
          <mxGeometry x="40" y="600" width="40" height="40" as="geometry" />
        </mxCell>
        <mxCell id="tLVuO6Sy8GR1sA5QQaV8-66" style="edgeStyle=orthogonalEdgeStyle;rounded=0;orthogonalLoop=1;jettySize=auto;html=1;entryX=0;entryY=0.5;entryDx=0;entryDy=0;" parent="1" source="tLVuO6Sy8GR1sA5QQaV8-67" target="tLVuO6Sy8GR1sA5QQaV8-61" edge="1">
          <mxGeometry relative="1" as="geometry" />
        </mxCell>
        <mxCell id="tLVuO6Sy8GR1sA5QQaV8-67" value="city" style="ellipse;whiteSpace=wrap;html=1;aspect=fixed;" parent="1" vertex="1">
          <mxGeometry x="40" y="660" width="40" height="40" as="geometry" />
        </mxCell>
        <mxCell id="tLVuO6Sy8GR1sA5QQaV8-68" style="edgeStyle=orthogonalEdgeStyle;rounded=0;orthogonalLoop=1;jettySize=auto;html=1;exitX=1;exitY=0.5;exitDx=0;exitDy=0;entryX=0;entryY=0.5;entryDx=0;entryDy=0;" parent="1" source="tLVuO6Sy8GR1sA5QQaV8-69" target="tLVuO6Sy8GR1sA5QQaV8-61" edge="1">
          <mxGeometry relative="1" as="geometry" />
        </mxCell>
        <mxCell id="tLVuO6Sy8GR1sA5QQaV8-69" value="region of birth" style="ellipse;whiteSpace=wrap;html=1;aspect=fixed;" parent="1" vertex="1">
          <mxGeometry x="40" y="720" width="40" height="40" as="geometry" />
        </mxCell>
        <mxCell id="tLVuO6Sy8GR1sA5QQaV8-72" value="team" style="rounded=0;whiteSpace=wrap;html=1;" parent="1" vertex="1">
          <mxGeometry x="540" y="830" width="120" height="60" as="geometry" />
        </mxCell>
        <mxCell id="tLVuO6Sy8GR1sA5QQaV8-73" style="edgeStyle=orthogonalEdgeStyle;rounded=0;orthogonalLoop=1;jettySize=auto;html=1;entryX=0;entryY=0.5;entryDx=0;entryDy=0;" parent="1" target="tLVuO6Sy8GR1sA5QQaV8-72" edge="1">
          <mxGeometry relative="1" as="geometry">
            <mxPoint x="530" y="860" as="sourcePoint" />
          </mxGeometry>
        </mxCell>
        <mxCell id="tLVuO6Sy8GR1sA5QQaV8-74" value="number of points" style="ellipse;whiteSpace=wrap;html=1;aspect=fixed;" parent="1" vertex="1">
          <mxGeometry x="490" y="840" width="40" height="40" as="geometry" />
        </mxCell>
        <mxCell id="tLVuO6Sy8GR1sA5QQaV8-81" value="contract" style="rhombus;whiteSpace=wrap;html=1;" parent="1" vertex="1">
          <mxGeometry x="660" y="320" width="80" height="40" as="geometry" />
        </mxCell>
        <mxCell id="tLVuO6Sy8GR1sA5QQaV8-96" style="edgeStyle=orthogonalEdgeStyle;rounded=0;orthogonalLoop=1;jettySize=auto;html=1;exitX=0.5;exitY=0;exitDx=0;exitDy=0;entryX=0.5;entryY=1;entryDx=0;entryDy=0;" parent="1" source="tLVuO6Sy8GR1sA5QQaV8-83" target="tLVuO6Sy8GR1sA5QQaV8-81" edge="1">
          <mxGeometry relative="1" as="geometry">
            <Array as="points">
              <mxPoint x="620" y="390" />
              <mxPoint x="700" y="390" />
            </Array>
          </mxGeometry>
        </mxCell>
        <mxCell id="tLVuO6Sy8GR1sA5QQaV8-83" value="date of beginning" style="ellipse;whiteSpace=wrap;html=1;aspect=fixed;" parent="1" vertex="1">
          <mxGeometry x="600" y="410" width="40" height="40" as="geometry" />
        </mxCell>
        <mxCell id="tLVuO6Sy8GR1sA5QQaV8-88" style="edgeStyle=orthogonalEdgeStyle;rounded=0;orthogonalLoop=1;jettySize=auto;html=1;entryX=0.5;entryY=1;entryDx=0;entryDy=0;" parent="1" source="tLVuO6Sy8GR1sA5QQaV8-84" target="tLVuO6Sy8GR1sA5QQaV8-81" edge="1">
          <mxGeometry relative="1" as="geometry">
            <Array as="points">
              <mxPoint x="700" y="400" />
              <mxPoint x="700" y="400" />
            </Array>
          </mxGeometry>
        </mxCell>
        <mxCell id="tLVuO6Sy8GR1sA5QQaV8-84" value="end of contract" style="ellipse;whiteSpace=wrap;html=1;aspect=fixed;" parent="1" vertex="1">
          <mxGeometry x="680" y="410" width="40" height="40" as="geometry" />
        </mxCell>
        <mxCell id="tLVuO6Sy8GR1sA5QQaV8-91" style="edgeStyle=orthogonalEdgeStyle;rounded=0;orthogonalLoop=1;jettySize=auto;html=1;entryX=0.5;entryY=1;entryDx=0;entryDy=0;" parent="1" source="tLVuO6Sy8GR1sA5QQaV8-85" target="tLVuO6Sy8GR1sA5QQaV8-81" edge="1">
          <mxGeometry relative="1" as="geometry">
            <Array as="points">
              <mxPoint x="780" y="390" />
              <mxPoint x="700" y="390" />
            </Array>
          </mxGeometry>
        </mxCell>
        <mxCell id="tLVuO6Sy8GR1sA5QQaV8-85" value="date of commencemenmt" style="ellipse;whiteSpace=wrap;html=1;aspect=fixed;" parent="1" vertex="1">
          <mxGeometry x="760" y="410" width="40" height="40" as="geometry" />
        </mxCell>
        <mxCell id="tLVuO6Sy8GR1sA5QQaV8-101" value="(0.N)" style="endArrow=none;html=1;rounded=0;exitX=1;exitY=0.5;exitDx=0;exitDy=0;entryX=0.5;entryY=1;entryDx=0;entryDy=0;" parent="1" source="tLVuO6Sy8GR1sA5QQaV8-81" target="tLVuO6Sy8GR1sA5QQaV8-26" edge="1">
          <mxGeometry x="-0.0182" width="50" height="50" relative="1" as="geometry">
            <mxPoint x="910" y="370" as="sourcePoint" />
            <mxPoint x="960" y="320" as="targetPoint" />
            <Array as="points">
              <mxPoint x="930" y="340" />
            </Array>
            <mxPoint as="offset" />
          </mxGeometry>
        </mxCell>
        <mxCell id="tLVuO6Sy8GR1sA5QQaV8-103" value="(0,N)" style="endArrow=none;html=1;rounded=0;entryX=0;entryY=0.5;entryDx=0;entryDy=0;exitX=0.5;exitY=0;exitDx=0;exitDy=0;" parent="1" source="tLVuO6Sy8GR1sA5QQaV8-72" target="tLVuO6Sy8GR1sA5QQaV8-81" edge="1">
          <mxGeometry width="50" height="50" relative="1" as="geometry">
            <mxPoint x="450" y="710" as="sourcePoint" />
            <mxPoint x="500" y="660" as="targetPoint" />
            <Array as="points">
              <mxPoint x="600" y="340" />
            </Array>
          </mxGeometry>
        </mxCell>
        <mxCell id="tLVuO6Sy8GR1sA5QQaV8-105" value="contract" style="rhombus;whiteSpace=wrap;html=1;" parent="1" vertex="1">
          <mxGeometry x="770" y="840" width="80" height="40" as="geometry" />
        </mxCell>
        <mxCell id="tLVuO6Sy8GR1sA5QQaV8-106" style="edgeStyle=orthogonalEdgeStyle;rounded=0;orthogonalLoop=1;jettySize=auto;html=1;exitX=0.5;exitY=0;exitDx=0;exitDy=0;entryX=0.5;entryY=1;entryDx=0;entryDy=0;" parent="1" source="tLVuO6Sy8GR1sA5QQaV8-107" target="tLVuO6Sy8GR1sA5QQaV8-105" edge="1">
          <mxGeometry relative="1" as="geometry">
            <Array as="points">
              <mxPoint x="730" y="910" />
              <mxPoint x="810" y="910" />
            </Array>
          </mxGeometry>
        </mxCell>
        <mxCell id="tLVuO6Sy8GR1sA5QQaV8-107" value="date of beginning" style="ellipse;whiteSpace=wrap;html=1;aspect=fixed;" parent="1" vertex="1">
          <mxGeometry x="710" y="930" width="40" height="40" as="geometry" />
        </mxCell>
        <mxCell id="tLVuO6Sy8GR1sA5QQaV8-108" style="edgeStyle=orthogonalEdgeStyle;rounded=0;orthogonalLoop=1;jettySize=auto;html=1;entryX=0.5;entryY=1;entryDx=0;entryDy=0;" parent="1" source="tLVuO6Sy8GR1sA5QQaV8-109" target="tLVuO6Sy8GR1sA5QQaV8-105" edge="1">
          <mxGeometry relative="1" as="geometry">
            <Array as="points">
              <mxPoint x="810" y="920" />
              <mxPoint x="810" y="920" />
            </Array>
          </mxGeometry>
        </mxCell>
        <mxCell id="tLVuO6Sy8GR1sA5QQaV8-109" value="end of contract" style="ellipse;whiteSpace=wrap;html=1;aspect=fixed;" parent="1" vertex="1">
          <mxGeometry x="790" y="930" width="40" height="40" as="geometry" />
        </mxCell>
        <mxCell id="tLVuO6Sy8GR1sA5QQaV8-110" style="edgeStyle=orthogonalEdgeStyle;rounded=0;orthogonalLoop=1;jettySize=auto;html=1;entryX=0.5;entryY=1;entryDx=0;entryDy=0;" parent="1" source="tLVuO6Sy8GR1sA5QQaV8-111" target="tLVuO6Sy8GR1sA5QQaV8-105" edge="1">
          <mxGeometry relative="1" as="geometry">
            <Array as="points">
              <mxPoint x="890" y="910" />
              <mxPoint x="810" y="910" />
            </Array>
          </mxGeometry>
        </mxCell>
        <mxCell id="tLVuO6Sy8GR1sA5QQaV8-111" value="date of commencemenmt" style="ellipse;whiteSpace=wrap;html=1;aspect=fixed;" parent="1" vertex="1">
          <mxGeometry x="870" y="930" width="40" height="40" as="geometry" />
        </mxCell>
        <mxCell id="tLVuO6Sy8GR1sA5QQaV8-115" value="(0,1)" style="endArrow=none;html=1;rounded=0;exitX=1;exitY=0.5;exitDx=0;exitDy=0;entryX=0.5;entryY=0;entryDx=0;entryDy=0;" parent="1" source="tLVuO6Sy8GR1sA5QQaV8-105" target="tLVuO6Sy8GR1sA5QQaV8-39" edge="1">
          <mxGeometry x="-0.0213" width="50" height="50" relative="1" as="geometry">
            <mxPoint x="880" y="520" as="sourcePoint" />
            <mxPoint x="930" y="470" as="targetPoint" />
            <Array as="points">
              <mxPoint x="1120" y="860" />
            </Array>
            <mxPoint as="offset" />
          </mxGeometry>
        </mxCell>
        <mxCell id="tLVuO6Sy8GR1sA5QQaV8-116" value="(1, N)" style="endArrow=none;html=1;rounded=0;entryX=1;entryY=0.5;entryDx=0;entryDy=0;" parent="1" target="tLVuO6Sy8GR1sA5QQaV8-72" edge="1">
          <mxGeometry width="50" height="50" relative="1" as="geometry">
            <mxPoint x="770" y="860" as="sourcePoint" />
            <mxPoint x="930" y="470" as="targetPoint" />
            <Array as="points" />
          </mxGeometry>
        </mxCell>
        <mxCell id="tLVuO6Sy8GR1sA5QQaV8-122" value="Paticipation" style="rhombus;whiteSpace=wrap;html=1;" parent="1" vertex="1">
          <mxGeometry x="440" y="20" width="80" height="40" as="geometry" />
        </mxCell>
        <mxCell id="tLVuO6Sy8GR1sA5QQaV8-124" style="edgeStyle=orthogonalEdgeStyle;rounded=0;orthogonalLoop=1;jettySize=auto;html=1;entryX=0.5;entryY=1;entryDx=0;entryDy=0;" parent="1" source="tLVuO6Sy8GR1sA5QQaV8-123" target="tLVuO6Sy8GR1sA5QQaV8-122" edge="1">
          <mxGeometry relative="1" as="geometry" />
        </mxCell>
        <mxCell id="tLVuO6Sy8GR1sA5QQaV8-123" value="position each player played" style="ellipse;whiteSpace=wrap;html=1;aspect=fixed;" parent="1" vertex="1">
          <mxGeometry x="460" y="80" width="40" height="40" as="geometry" />
        </mxCell>
        <mxCell id="tLVuO6Sy8GR1sA5QQaV8-125" value="" style="endArrow=none;html=1;rounded=0;exitX=1;exitY=0.5;exitDx=0;exitDy=0;entryX=0.5;entryY=0;entryDx=0;entryDy=0;" parent="1" source="tLVuO6Sy8GR1sA5QQaV8-122" target="tLVuO6Sy8GR1sA5QQaV8-26" edge="1">
          <mxGeometry width="50" height="50" relative="1" as="geometry">
            <mxPoint x="560" y="320" as="sourcePoint" />
            <mxPoint x="610" y="270" as="targetPoint" />
            <Array as="points">
              <mxPoint x="930" y="40" />
            </Array>
          </mxGeometry>
        </mxCell>
        <mxCell id="tLVuO6Sy8GR1sA5QQaV8-126" value="" style="endArrow=none;html=1;rounded=0;entryX=0;entryY=0.5;entryDx=0;entryDy=0;exitX=0.5;exitY=0;exitDx=0;exitDy=0;" parent="1" source="tLVuO6Sy8GR1sA5QQaV8-2" target="tLVuO6Sy8GR1sA5QQaV8-122" edge="1">
          <mxGeometry width="50" height="50" relative="1" as="geometry">
            <mxPoint x="560" y="150" as="sourcePoint" />
            <mxPoint x="610" y="100" as="targetPoint" />
            <Array as="points">
              <mxPoint x="200" y="40" />
            </Array>
          </mxGeometry>
        </mxCell>
        <mxCell id="tLVuO6Sy8GR1sA5QQaV8-127" value="Paticipation1" style="rhombus;whiteSpace=wrap;html=1;" parent="1" vertex="1">
          <mxGeometry x="350" y="1020" width="80" height="40" as="geometry" />
        </mxCell>
        <mxCell id="tLVuO6Sy8GR1sA5QQaV8-128" value="" style="endArrow=none;html=1;rounded=0;entryX=1;entryY=0.5;entryDx=0;entryDy=0;exitX=0.5;exitY=1;exitDx=0;exitDy=0;" parent="1" source="tLVuO6Sy8GR1sA5QQaV8-39" target="tLVuO6Sy8GR1sA5QQaV8-127" edge="1">
          <mxGeometry width="50" height="50" relative="1" as="geometry">
            <mxPoint x="240" y="840" as="sourcePoint" />
            <mxPoint x="290" y="790" as="targetPoint" />
            <Array as="points">
              <mxPoint x="1120" y="1040" />
            </Array>
          </mxGeometry>
        </mxCell>
        <mxCell id="tLVuO6Sy8GR1sA5QQaV8-129" value="" style="endArrow=none;html=1;rounded=0;entryX=0;entryY=0.5;entryDx=0;entryDy=0;exitX=1;exitY=0.5;exitDx=0;exitDy=0;" parent="1" source="tLVuO6Sy8GR1sA5QQaV8-2" target="tLVuO6Sy8GR1sA5QQaV8-127" edge="1">
          <mxGeometry width="50" height="50" relative="1" as="geometry">
            <mxPoint x="290" y="850" as="sourcePoint" />
            <mxPoint x="340" y="800" as="targetPoint" />
            <Array as="points">
              <mxPoint x="350" y="220" />
            </Array>
          </mxGeometry>
        </mxCell>
        <mxCell id="tLVuO6Sy8GR1sA5QQaV8-130" value="Paticipation1" style="rhombus;whiteSpace=wrap;html=1;" parent="1" vertex="1">
          <mxGeometry x="250" y="450" width="80" height="40" as="geometry" />
        </mxCell>
        <mxCell id="tLVuO6Sy8GR1sA5QQaV8-132" value="" style="endArrow=none;html=1;rounded=0;exitX=1;exitY=0.5;exitDx=0;exitDy=0;entryX=0.5;entryY=1;entryDx=0;entryDy=0;" parent="1" source="tLVuO6Sy8GR1sA5QQaV8-61" target="tLVuO6Sy8GR1sA5QQaV8-130" edge="1">
          <mxGeometry width="50" height="50" relative="1" as="geometry">
            <mxPoint x="230" y="600" as="sourcePoint" />
            <mxPoint x="280" y="550" as="targetPoint" />
            <Array as="points">
              <mxPoint x="290" y="650" />
            </Array>
          </mxGeometry>
        </mxCell>
        <mxCell id="tLVuO6Sy8GR1sA5QQaV8-133" value="" style="endArrow=none;html=1;rounded=0;entryX=0.5;entryY=0;entryDx=0;entryDy=0;exitX=1;exitY=0.5;exitDx=0;exitDy=0;" parent="1" source="tLVuO6Sy8GR1sA5QQaV8-2" target="tLVuO6Sy8GR1sA5QQaV8-130" edge="1">
          <mxGeometry width="50" height="50" relative="1" as="geometry">
            <mxPoint x="230" y="600" as="sourcePoint" />
            <mxPoint x="280" y="550" as="targetPoint" />
            <Array as="points">
              <mxPoint x="290" y="220" />
            </Array>
          </mxGeometry>
        </mxCell>
        <mxCell id="tLVuO6Sy8GR1sA5QQaV8-135" value="Paticipation2" style="rhombus;whiteSpace=wrap;html=1;" parent="1" vertex="1">
          <mxGeometry x="530" y="200" width="80" height="40" as="geometry" />
        </mxCell>
        <mxCell id="tLVuO6Sy8GR1sA5QQaV8-138" value="" style="endArrow=none;html=1;rounded=0;entryX=0.25;entryY=0;entryDx=0;entryDy=0;exitX=0.5;exitY=1;exitDx=0;exitDy=0;" parent="1" source="tLVuO6Sy8GR1sA5QQaV8-135" target="tLVuO6Sy8GR1sA5QQaV8-72" edge="1">
          <mxGeometry width="50" height="50" relative="1" as="geometry">
            <mxPoint x="230" y="600" as="sourcePoint" />
            <mxPoint x="280" y="550" as="targetPoint" />
          </mxGeometry>
        </mxCell>
        <mxCell id="tLVuO6Sy8GR1sA5QQaV8-140" style="edgeStyle=orthogonalEdgeStyle;rounded=0;orthogonalLoop=1;jettySize=auto;html=1;entryX=0.5;entryY=0;entryDx=0;entryDy=0;" parent="1" source="tLVuO6Sy8GR1sA5QQaV8-139" target="tLVuO6Sy8GR1sA5QQaV8-135" edge="1">
          <mxGeometry relative="1" as="geometry" />
        </mxCell>
        <mxCell id="tLVuO6Sy8GR1sA5QQaV8-139" value="whether that team played at home" style="ellipse;whiteSpace=wrap;html=1;aspect=fixed;" parent="1" vertex="1">
          <mxGeometry x="540" y="120" width="60" height="60" as="geometry" />
        </mxCell>
        <mxCell id="tLVuO6Sy8GR1sA5QQaV8-143" value="" style="endArrow=none;html=1;rounded=0;entryX=0;entryY=0.5;entryDx=0;entryDy=0;exitX=1;exitY=0.5;exitDx=0;exitDy=0;" parent="1" source="tLVuO6Sy8GR1sA5QQaV8-2" target="tLVuO6Sy8GR1sA5QQaV8-135" edge="1">
          <mxGeometry width="50" height="50" relative="1" as="geometry">
            <mxPoint x="380" y="430" as="sourcePoint" />
            <mxPoint x="430" y="380" as="targetPoint" />
          </mxGeometry>
        </mxCell>
        <mxCell id="js9ADKCDWMMnzme6BKiL-2" style="edgeStyle=orthogonalEdgeStyle;rounded=0;orthogonalLoop=1;jettySize=auto;html=1;entryX=0;entryY=0.5;entryDx=0;entryDy=0;" parent="1" source="js9ADKCDWMMnzme6BKiL-1" target="tLVuO6Sy8GR1sA5QQaV8-2" edge="1">
          <mxGeometry relative="1" as="geometry" />
        </mxCell>
        <mxCell id="js9ADKCDWMMnzme6BKiL-1" value="year" style="ellipse;whiteSpace=wrap;html=1;aspect=fixed;" parent="1" vertex="1">
          <mxGeometry x="40" y="330" width="40" height="40" as="geometry" />
        </mxCell>
      </root>
    </mxGraphModel>
  </diagram>
  <diagram id="i1gz378UikLBb8DrILV9" name="第 2 页">
    <mxGraphModel dx="1988" dy="2334" grid="1" gridSize="10" guides="1" tooltips="1" connect="1" arrows="1" fold="1" page="1" pageScale="1" pageWidth="827" pageHeight="1169" math="0" shadow="0">
      <root>
        <mxCell id="0" />
        <mxCell id="1" parent="0" />
        <mxCell id="JJ1q12JyOulIS_rOJtMa-1" value="match" style="rounded=0;whiteSpace=wrap;html=1;" parent="1" vertex="1">
          <mxGeometry x="200" y="140" width="120" height="60" as="geometry" />
        </mxCell>
        <mxCell id="JJ1q12JyOulIS_rOJtMa-2" style="edgeStyle=orthogonalEdgeStyle;rounded=0;orthogonalLoop=1;jettySize=auto;html=1;entryX=0;entryY=0.5;entryDx=0;entryDy=0;" parent="1" source="JJ1q12JyOulIS_rOJtMa-3" target="JJ1q12JyOulIS_rOJtMa-1" edge="1">
          <mxGeometry relative="1" as="geometry" />
        </mxCell>
        <mxCell id="JJ1q12JyOulIS_rOJtMa-3" value="" style="ellipse;whiteSpace=wrap;html=1;aspect=fixed;" parent="1" vertex="1">
          <mxGeometry x="120" width="20" height="20" as="geometry" />
        </mxCell>
        <mxCell id="JJ1q12JyOulIS_rOJtMa-4" style="edgeStyle=orthogonalEdgeStyle;rounded=0;orthogonalLoop=1;jettySize=auto;html=1;entryX=0;entryY=0.5;entryDx=0;entryDy=0;" parent="1" source="JJ1q12JyOulIS_rOJtMa-5" target="JJ1q12JyOulIS_rOJtMa-1" edge="1">
          <mxGeometry relative="1" as="geometry" />
        </mxCell>
        <mxCell id="JJ1q12JyOulIS_rOJtMa-5" value="" style="ellipse;whiteSpace=wrap;html=1;aspect=fixed;" parent="1" vertex="1">
          <mxGeometry x="120" y="60" width="20" height="20" as="geometry" />
        </mxCell>
        <mxCell id="JJ1q12JyOulIS_rOJtMa-6" style="edgeStyle=orthogonalEdgeStyle;rounded=0;orthogonalLoop=1;jettySize=auto;html=1;entryX=0;entryY=0.5;entryDx=0;entryDy=0;" parent="1" source="JJ1q12JyOulIS_rOJtMa-7" target="JJ1q12JyOulIS_rOJtMa-1" edge="1">
          <mxGeometry relative="1" as="geometry" />
        </mxCell>
        <mxCell id="JJ1q12JyOulIS_rOJtMa-7" value="" style="ellipse;whiteSpace=wrap;html=1;aspect=fixed;" parent="1" vertex="1">
          <mxGeometry x="120" y="120" width="20" height="20" as="geometry" />
        </mxCell>
        <mxCell id="JJ1q12JyOulIS_rOJtMa-8" style="edgeStyle=orthogonalEdgeStyle;rounded=0;orthogonalLoop=1;jettySize=auto;html=1;exitX=1;exitY=0.5;exitDx=0;exitDy=0;entryX=0;entryY=0.5;entryDx=0;entryDy=0;" parent="1" source="JJ1q12JyOulIS_rOJtMa-9" target="JJ1q12JyOulIS_rOJtMa-1" edge="1">
          <mxGeometry relative="1" as="geometry" />
        </mxCell>
        <mxCell id="JJ1q12JyOulIS_rOJtMa-9" value="" style="ellipse;whiteSpace=wrap;html=1;aspect=fixed;" parent="1" vertex="1">
          <mxGeometry x="120" y="180" width="20" height="20" as="geometry" />
        </mxCell>
        <mxCell id="JJ1q12JyOulIS_rOJtMa-10" style="edgeStyle=orthogonalEdgeStyle;rounded=0;orthogonalLoop=1;jettySize=auto;html=1;exitX=1;exitY=0.5;exitDx=0;exitDy=0;entryX=0;entryY=0.5;entryDx=0;entryDy=0;" parent="1" source="JJ1q12JyOulIS_rOJtMa-11" target="JJ1q12JyOulIS_rOJtMa-1" edge="1">
          <mxGeometry relative="1" as="geometry" />
        </mxCell>
        <mxCell id="JJ1q12JyOulIS_rOJtMa-11" value="" style="ellipse;whiteSpace=wrap;html=1;aspect=fixed;" parent="1" vertex="1">
          <mxGeometry x="120" y="240" width="20" height="20" as="geometry" />
        </mxCell>
        <mxCell id="JJ1q12JyOulIS_rOJtMa-12" style="edgeStyle=orthogonalEdgeStyle;rounded=0;orthogonalLoop=1;jettySize=auto;html=1;exitX=1;exitY=0.5;exitDx=0;exitDy=0;entryX=0;entryY=0.5;entryDx=0;entryDy=0;" parent="1" source="JJ1q12JyOulIS_rOJtMa-13" target="JJ1q12JyOulIS_rOJtMa-1" edge="1">
          <mxGeometry relative="1" as="geometry" />
        </mxCell>
        <mxCell id="JJ1q12JyOulIS_rOJtMa-13" value="" style="ellipse;whiteSpace=wrap;html=1;aspect=fixed;" parent="1" vertex="1">
          <mxGeometry x="120" y="360" width="20" height="20" as="geometry" />
        </mxCell>
        <mxCell id="JJ1q12JyOulIS_rOJtMa-14" style="edgeStyle=orthogonalEdgeStyle;rounded=0;orthogonalLoop=1;jettySize=auto;html=1;entryX=0;entryY=0.5;entryDx=0;entryDy=0;" parent="1" source="JJ1q12JyOulIS_rOJtMa-15" target="JJ1q12JyOulIS_rOJtMa-1" edge="1">
          <mxGeometry relative="1" as="geometry" />
        </mxCell>
        <mxCell id="JJ1q12JyOulIS_rOJtMa-15" value="" style="ellipse;whiteSpace=wrap;html=1;aspect=fixed;" parent="1" vertex="1">
          <mxGeometry x="120" y="300" width="20" height="20" as="geometry" />
        </mxCell>
        <mxCell id="oEwuyp7gdKykDIGCdkBZ-1" value="referee" style="rounded=0;whiteSpace=wrap;html=1;" parent="1" vertex="1">
          <mxGeometry x="710" y="390" width="120" height="60" as="geometry" />
        </mxCell>
        <mxCell id="qvM4iGuFO6GltO2IqF-L-3" style="edgeStyle=orthogonalEdgeStyle;rounded=0;orthogonalLoop=1;jettySize=auto;html=1;entryX=0.5;entryY=1;entryDx=0;entryDy=0;" parent="1" source="oEwuyp7gdKykDIGCdkBZ-7" target="oEwuyp7gdKykDIGCdkBZ-1" edge="1">
          <mxGeometry relative="1" as="geometry" />
        </mxCell>
        <mxCell id="oEwuyp7gdKykDIGCdkBZ-7" value="" style="ellipse;whiteSpace=wrap;html=1;aspect=fixed;" parent="1" vertex="1">
          <mxGeometry x="700" y="490" width="20" height="20" as="geometry" />
        </mxCell>
        <mxCell id="qvM4iGuFO6GltO2IqF-L-7" style="edgeStyle=orthogonalEdgeStyle;rounded=0;orthogonalLoop=1;jettySize=auto;html=1;entryX=0.5;entryY=1;entryDx=0;entryDy=0;" parent="1" source="oEwuyp7gdKykDIGCdkBZ-9" target="oEwuyp7gdKykDIGCdkBZ-1" edge="1">
          <mxGeometry relative="1" as="geometry" />
        </mxCell>
        <mxCell id="oEwuyp7gdKykDIGCdkBZ-9" value="" style="ellipse;whiteSpace=wrap;html=1;aspect=fixed;" parent="1" vertex="1">
          <mxGeometry x="827" y="490" width="20" height="20" as="geometry" />
        </mxCell>
        <mxCell id="ze-rRnuW1i4ya5lAtZek-1" value="coach" style="rounded=0;whiteSpace=wrap;html=1;" parent="1" vertex="1">
          <mxGeometry x="940" y="380" width="120" height="60" as="geometry" />
        </mxCell>
        <mxCell id="ze-rRnuW1i4ya5lAtZek-11" style="edgeStyle=orthogonalEdgeStyle;rounded=0;orthogonalLoop=1;jettySize=auto;html=1;entryX=0.5;entryY=1;entryDx=0;entryDy=0;" parent="1" source="ze-rRnuW1i4ya5lAtZek-5" target="ze-rRnuW1i4ya5lAtZek-1" edge="1">
          <mxGeometry relative="1" as="geometry">
            <Array as="points">
              <mxPoint x="943" y="460" />
              <mxPoint x="1000" y="460" />
            </Array>
          </mxGeometry>
        </mxCell>
        <mxCell id="ze-rRnuW1i4ya5lAtZek-5" value="" style="ellipse;whiteSpace=wrap;html=1;aspect=fixed;" parent="1" vertex="1">
          <mxGeometry x="932.5" y="490" width="20" height="20" as="geometry" />
        </mxCell>
        <mxCell id="ze-rRnuW1i4ya5lAtZek-12" style="edgeStyle=orthogonalEdgeStyle;rounded=0;orthogonalLoop=1;jettySize=auto;html=1;entryX=0.5;entryY=1;entryDx=0;entryDy=0;exitX=0.5;exitY=0;exitDx=0;exitDy=0;" parent="1" source="ze-rRnuW1i4ya5lAtZek-7" target="ze-rRnuW1i4ya5lAtZek-1" edge="1">
          <mxGeometry relative="1" as="geometry">
            <Array as="points">
              <mxPoint x="1075" y="460" />
              <mxPoint x="1000" y="460" />
            </Array>
          </mxGeometry>
        </mxCell>
        <mxCell id="ze-rRnuW1i4ya5lAtZek-7" value="" style="ellipse;whiteSpace=wrap;html=1;aspect=fixed;" parent="1" vertex="1">
          <mxGeometry x="1065" y="490" width="20" height="20" as="geometry" />
        </mxCell>
        <mxCell id="Sh0yjSML1Tbc7BXsvag_-1" value="player" style="rounded=0;whiteSpace=wrap;html=1;" parent="1" vertex="1">
          <mxGeometry x="1406" y="377.5" width="120" height="60" as="geometry" />
        </mxCell>
        <mxCell id="Hrme0Yth2sDPcj_GdbY5-6" style="edgeStyle=orthogonalEdgeStyle;rounded=0;orthogonalLoop=1;jettySize=auto;html=1;entryX=0.5;entryY=1;entryDx=0;entryDy=0;" parent="1" source="Sh0yjSML1Tbc7BXsvag_-7" target="Sh0yjSML1Tbc7BXsvag_-1" edge="1">
          <mxGeometry relative="1" as="geometry" />
        </mxCell>
        <mxCell id="Sh0yjSML1Tbc7BXsvag_-7" value="" style="ellipse;whiteSpace=wrap;html=1;aspect=fixed;" parent="1" vertex="1">
          <mxGeometry x="1402" y="490" width="20" height="20" as="geometry" />
        </mxCell>
        <mxCell id="Hrme0Yth2sDPcj_GdbY5-7" style="edgeStyle=orthogonalEdgeStyle;rounded=0;orthogonalLoop=1;jettySize=auto;html=1;entryX=0.5;entryY=1;entryDx=0;entryDy=0;" parent="1" source="Sh0yjSML1Tbc7BXsvag_-9" target="Sh0yjSML1Tbc7BXsvag_-1" edge="1">
          <mxGeometry relative="1" as="geometry" />
        </mxCell>
        <mxCell id="Sh0yjSML1Tbc7BXsvag_-9" value="" style="ellipse;whiteSpace=wrap;html=1;aspect=fixed;" parent="1" vertex="1">
          <mxGeometry x="1472" y="490" width="20" height="20" as="geometry" />
        </mxCell>
        <mxCell id="PueT6GZW6PclOlYW9xHa-19" style="edgeStyle=orthogonalEdgeStyle;rounded=0;orthogonalLoop=1;jettySize=auto;html=1;entryX=0.5;entryY=1;entryDx=0;entryDy=0;" parent="1" source="Sh0yjSML1Tbc7BXsvag_-11" target="Sh0yjSML1Tbc7BXsvag_-1" edge="1">
          <mxGeometry relative="1" as="geometry" />
        </mxCell>
        <mxCell id="Sh0yjSML1Tbc7BXsvag_-11" value="" style="ellipse;whiteSpace=wrap;html=1;aspect=fixed;" parent="1" vertex="1">
          <mxGeometry x="1526" y="490" width="20" height="20" as="geometry" />
        </mxCell>
        <mxCell id="Sh0yjSML1Tbc7BXsvag_-16" value="Person" style="rounded=0;whiteSpace=wrap;html=1;" parent="1" vertex="1">
          <mxGeometry x="940" y="140" width="120" height="60" as="geometry" />
        </mxCell>
        <mxCell id="Sh0yjSML1Tbc7BXsvag_-23" value="first name" style="text;html=1;strokeColor=none;fillColor=none;align=center;verticalAlign=middle;whiteSpace=wrap;rounded=0;" parent="1" vertex="1">
          <mxGeometry x="910" y="60" width="60" height="30" as="geometry" />
        </mxCell>
        <mxCell id="Sh0yjSML1Tbc7BXsvag_-26" value="" style="html=1;verticalAlign=bottom;startArrow=circle;startFill=1;endArrow=open;startSize=6;endSize=8;rounded=0;exitX=0.5;exitY=1;exitDx=0;exitDy=0;" parent="1" source="Sh0yjSML1Tbc7BXsvag_-23" edge="1">
          <mxGeometry width="80" relative="1" as="geometry">
            <mxPoint x="930" y="260" as="sourcePoint" />
            <mxPoint x="1000" y="140" as="targetPoint" />
          </mxGeometry>
        </mxCell>
        <mxCell id="Sh0yjSML1Tbc7BXsvag_-27" value="" style="html=1;verticalAlign=bottom;startArrow=circle;startFill=1;endArrow=open;startSize=6;endSize=8;rounded=0;entryX=0.5;entryY=0;entryDx=0;entryDy=0;exitX=0.5;exitY=1;exitDx=0;exitDy=0;" parent="1" source="Sh0yjSML1Tbc7BXsvag_-28" target="Sh0yjSML1Tbc7BXsvag_-16" edge="1">
          <mxGeometry width="80" relative="1" as="geometry">
            <mxPoint x="1050" y="260" as="sourcePoint" />
            <mxPoint x="991.52" y="212.81999999999994" as="targetPoint" />
          </mxGeometry>
        </mxCell>
        <mxCell id="Sh0yjSML1Tbc7BXsvag_-28" value="surname" style="text;html=1;strokeColor=none;fillColor=none;align=center;verticalAlign=middle;whiteSpace=wrap;rounded=0;" parent="1" vertex="1">
          <mxGeometry x="1040" y="60" width="60" height="30" as="geometry" />
        </mxCell>
        <mxCell id="Sh0yjSML1Tbc7BXsvag_-32" style="edgeStyle=orthogonalEdgeStyle;rounded=0;orthogonalLoop=1;jettySize=auto;html=1;entryX=0.5;entryY=1;entryDx=0;entryDy=0;" parent="1" source="Sh0yjSML1Tbc7BXsvag_-30" target="Sh0yjSML1Tbc7BXsvag_-16" edge="1">
          <mxGeometry relative="1" as="geometry" />
        </mxCell>
        <mxCell id="Sh0yjSML1Tbc7BXsvag_-30" value="isA" style="strokeWidth=2;html=1;shape=mxgraph.flowchart.extract_or_measurement;whiteSpace=wrap;" parent="1" vertex="1">
          <mxGeometry x="952.5" y="250" width="95" height="60" as="geometry" />
        </mxCell>
        <mxCell id="Sh0yjSML1Tbc7BXsvag_-35" value="" style="endArrow=none;html=1;rounded=0;entryX=0.5;entryY=1;entryDx=0;entryDy=0;entryPerimeter=0;exitX=0.5;exitY=0;exitDx=0;exitDy=0;" parent="1" source="ze-rRnuW1i4ya5lAtZek-1" target="Sh0yjSML1Tbc7BXsvag_-30" edge="1">
          <mxGeometry width="50" height="50" relative="1" as="geometry">
            <mxPoint x="1000" y="370" as="sourcePoint" />
            <mxPoint x="1050" y="450" as="targetPoint" />
          </mxGeometry>
        </mxCell>
        <mxCell id="Sh0yjSML1Tbc7BXsvag_-36" value="" style="endArrow=none;html=1;rounded=0;entryX=0.99;entryY=0.97;entryDx=0;entryDy=0;entryPerimeter=0;exitX=0.5;exitY=0;exitDx=0;exitDy=0;" parent="1" source="Sh0yjSML1Tbc7BXsvag_-1" target="Sh0yjSML1Tbc7BXsvag_-30" edge="1">
          <mxGeometry width="50" height="50" relative="1" as="geometry">
            <mxPoint x="1000" y="500" as="sourcePoint" />
            <mxPoint x="1050" y="450" as="targetPoint" />
          </mxGeometry>
        </mxCell>
        <mxCell id="Sh0yjSML1Tbc7BXsvag_-37" value="" style="endArrow=none;html=1;rounded=0;entryX=0.01;entryY=0.97;entryDx=0;entryDy=0;entryPerimeter=0;exitX=0.5;exitY=0;exitDx=0;exitDy=0;" parent="1" source="oEwuyp7gdKykDIGCdkBZ-1" target="Sh0yjSML1Tbc7BXsvag_-30" edge="1">
          <mxGeometry width="50" height="50" relative="1" as="geometry">
            <mxPoint x="840" y="380" as="sourcePoint" />
            <mxPoint x="1050" y="450" as="targetPoint" />
          </mxGeometry>
        </mxCell>
        <mxCell id="Sh0yjSML1Tbc7BXsvag_-41" value="city" style="text;html=1;strokeColor=none;fillColor=none;align=center;verticalAlign=middle;whiteSpace=wrap;rounded=0;" parent="1" vertex="1">
          <mxGeometry x="670" y="500" width="60" height="30" as="geometry" />
        </mxCell>
        <mxCell id="qvM4iGuFO6GltO2IqF-L-4" value="region of birth" style="text;html=1;strokeColor=none;fillColor=none;align=center;verticalAlign=middle;whiteSpace=wrap;rounded=0;" parent="1" vertex="1">
          <mxGeometry x="812" y="515" width="50" height="15" as="geometry" />
        </mxCell>
        <mxCell id="qvM4iGuFO6GltO2IqF-L-8" value="salary" style="text;html=1;strokeColor=none;fillColor=none;align=center;verticalAlign=middle;whiteSpace=wrap;rounded=0;" parent="1" vertex="1">
          <mxGeometry x="900" y="500" width="60" height="30" as="geometry" />
        </mxCell>
        <mxCell id="Hrme0Yth2sDPcj_GdbY5-1" value="city of birth" style="text;html=1;strokeColor=none;fillColor=none;align=center;verticalAlign=middle;whiteSpace=wrap;rounded=0;" parent="1" vertex="1">
          <mxGeometry x="1050" y="510" width="50" height="25" as="geometry" />
        </mxCell>
        <mxCell id="Hrme0Yth2sDPcj_GdbY5-2" value="date of birth" style="text;html=1;strokeColor=none;fillColor=none;align=center;verticalAlign=middle;whiteSpace=wrap;rounded=0;" parent="1" vertex="1">
          <mxGeometry x="1390" y="515" width="44" height="15" as="geometry" />
        </mxCell>
        <mxCell id="Hrme0Yth2sDPcj_GdbY5-4" value="main position" style="text;html=1;strokeColor=none;fillColor=none;align=center;verticalAlign=middle;whiteSpace=wrap;rounded=0;" parent="1" vertex="1">
          <mxGeometry x="1456" y="515" width="40" height="15" as="geometry" />
        </mxCell>
        <mxCell id="Hrme0Yth2sDPcj_GdbY5-9" value="&lt;span style=&quot;color: rgb(0, 0, 0); font-family: Helvetica; font-size: 12px; font-style: normal; font-variant-ligatures: normal; font-variant-caps: normal; font-weight: 400; letter-spacing: normal; orphans: 2; text-align: center; text-indent: 0px; text-transform: none; widows: 2; word-spacing: 0px; -webkit-text-stroke-width: 0px; background-color: rgb(248, 249, 250); text-decoration-thickness: initial; text-decoration-style: initial; text-decoration-color: initial; float: none; display: inline !important;&quot;&gt;city of birth&lt;/span&gt;" style="text;whiteSpace=wrap;html=1;" parent="1" vertex="1">
          <mxGeometry x="1526" y="510" width="90" height="40" as="geometry" />
        </mxCell>
        <mxCell id="7-wcCPyZGdg9CAwQbDir-1" value="contract" style="rhombus;whiteSpace=wrap;html=1;" parent="1" vertex="1">
          <mxGeometry x="1165.5" y="470" width="80" height="40" as="geometry" />
        </mxCell>
        <mxCell id="7-wcCPyZGdg9CAwQbDir-3" value="" style="ellipse;whiteSpace=wrap;html=1;aspect=fixed;" parent="1" vertex="1">
          <mxGeometry x="1113" y="395" width="25" height="25" as="geometry" />
        </mxCell>
        <mxCell id="7-wcCPyZGdg9CAwQbDir-5" value="" style="ellipse;whiteSpace=wrap;html=1;aspect=fixed;" parent="1" vertex="1">
          <mxGeometry x="1193" y="395" width="25" height="25" as="geometry" />
        </mxCell>
        <mxCell id="7-wcCPyZGdg9CAwQbDir-7" value="" style="ellipse;whiteSpace=wrap;html=1;aspect=fixed;" parent="1" vertex="1">
          <mxGeometry x="1273" y="395" width="25" height="25" as="geometry" />
        </mxCell>
        <mxCell id="PueT6GZW6PclOlYW9xHa-17" style="edgeStyle=orthogonalEdgeStyle;rounded=0;orthogonalLoop=1;jettySize=auto;html=1;entryX=0.5;entryY=1;entryDx=0;entryDy=0;" parent="1" source="PueT6GZW6PclOlYW9xHa-3" target="PueT6GZW6PclOlYW9xHa-1" edge="1">
          <mxGeometry relative="1" as="geometry" />
        </mxCell>
        <mxCell id="PueT6GZW6PclOlYW9xHa-3" value="" style="ellipse;whiteSpace=wrap;html=1;aspect=fixed;" parent="1" vertex="1">
          <mxGeometry x="1195.5" y="670" width="20" height="20" as="geometry" />
        </mxCell>
        <mxCell id="PueT6GZW6PclOlYW9xHa-5" value="&lt;span style=&quot;color: rgb(0, 0, 0); font-family: Helvetica; font-size: 12px; font-style: normal; font-variant-ligatures: normal; font-variant-caps: normal; font-weight: 400; letter-spacing: normal; orphans: 2; text-align: center; text-indent: 0px; text-transform: none; widows: 2; word-spacing: 0px; -webkit-text-stroke-width: 0px; background-color: rgb(248, 249, 250); text-decoration-thickness: initial; text-decoration-style: initial; text-decoration-color: initial; float: none; display: inline !important;&quot;&gt;date of beginning&lt;/span&gt;" style="text;whiteSpace=wrap;html=1;" parent="1" vertex="1">
          <mxGeometry x="1068" y="370" width="130" height="40" as="geometry" />
        </mxCell>
        <mxCell id="PueT6GZW6PclOlYW9xHa-8" value="&lt;span style=&quot;color: rgb(0, 0, 0); font-family: Helvetica; font-size: 12px; font-style: normal; font-variant-ligatures: normal; font-variant-caps: normal; font-weight: 400; letter-spacing: normal; orphans: 2; text-align: center; text-indent: 0px; text-transform: none; widows: 2; word-spacing: 0px; -webkit-text-stroke-width: 0px; background-color: rgb(248, 249, 250); text-decoration-thickness: initial; text-decoration-style: initial; text-decoration-color: initial; float: none; display: inline !important;&quot;&gt;end of contract&lt;/span&gt;" style="text;whiteSpace=wrap;html=1;" parent="1" vertex="1">
          <mxGeometry x="1173" y="370" width="110" height="40" as="geometry" />
        </mxCell>
        <mxCell id="PueT6GZW6PclOlYW9xHa-9" value="&lt;span style=&quot;color: rgb(0, 0, 0); font-family: Helvetica; font-size: 12px; font-style: normal; font-variant-ligatures: normal; font-variant-caps: normal; font-weight: 400; letter-spacing: normal; orphans: 2; text-align: center; text-indent: 0px; text-transform: none; widows: 2; word-spacing: 0px; -webkit-text-stroke-width: 0px; background-color: rgb(248, 249, 250); text-decoration-thickness: initial; text-decoration-style: initial; text-decoration-color: initial; float: none; display: inline !important;&quot;&gt;commencemenmt date&lt;/span&gt;" style="text;whiteSpace=wrap;html=1;" parent="1" vertex="1">
          <mxGeometry x="1264" y="370" width="170" height="40" as="geometry" />
        </mxCell>
        <mxCell id="PueT6GZW6PclOlYW9xHa-10" value="" style="endArrow=none;html=1;rounded=0;entryX=0.5;entryY=1;entryDx=0;entryDy=0;exitX=0.5;exitY=0;exitDx=0;exitDy=0;" parent="1" source="7-wcCPyZGdg9CAwQbDir-1" target="7-wcCPyZGdg9CAwQbDir-3" edge="1">
          <mxGeometry width="50" height="50" relative="1" as="geometry">
            <mxPoint x="1218" y="400" as="sourcePoint" />
            <mxPoint x="1268" y="350" as="targetPoint" />
          </mxGeometry>
        </mxCell>
        <mxCell id="PueT6GZW6PclOlYW9xHa-11" value="" style="endArrow=none;html=1;rounded=0;exitX=0.5;exitY=1;exitDx=0;exitDy=0;entryX=0.5;entryY=0;entryDx=0;entryDy=0;" parent="1" source="7-wcCPyZGdg9CAwQbDir-5" target="7-wcCPyZGdg9CAwQbDir-1" edge="1">
          <mxGeometry width="50" height="50" relative="1" as="geometry">
            <mxPoint x="1218" y="400" as="sourcePoint" />
            <mxPoint x="1208" y="450" as="targetPoint" />
          </mxGeometry>
        </mxCell>
        <mxCell id="PueT6GZW6PclOlYW9xHa-12" value="" style="endArrow=none;html=1;rounded=0;entryX=0.5;entryY=1;entryDx=0;entryDy=0;exitX=0.5;exitY=0;exitDx=0;exitDy=0;" parent="1" source="7-wcCPyZGdg9CAwQbDir-1" target="7-wcCPyZGdg9CAwQbDir-7" edge="1">
          <mxGeometry width="50" height="50" relative="1" as="geometry">
            <mxPoint x="1208" y="450" as="sourcePoint" />
            <mxPoint x="1268" y="350" as="targetPoint" />
          </mxGeometry>
        </mxCell>
        <mxCell id="PueT6GZW6PclOlYW9xHa-13" value="" style="endArrow=none;html=1;rounded=0;exitX=1;exitY=0.75;exitDx=0;exitDy=0;entryX=0;entryY=0.5;entryDx=0;entryDy=0;" parent="1" source="ze-rRnuW1i4ya5lAtZek-1" target="7-wcCPyZGdg9CAwQbDir-1" edge="1">
          <mxGeometry width="50" height="50" relative="1" as="geometry">
            <mxPoint x="1170" y="530" as="sourcePoint" />
            <mxPoint x="1220" y="480" as="targetPoint" />
          </mxGeometry>
        </mxCell>
        <mxCell id="PueT6GZW6PclOlYW9xHa-14" value="" style="endArrow=none;html=1;rounded=0;entryX=0;entryY=0.75;entryDx=0;entryDy=0;exitX=1;exitY=0.5;exitDx=0;exitDy=0;" parent="1" source="7-wcCPyZGdg9CAwQbDir-1" target="Sh0yjSML1Tbc7BXsvag_-1" edge="1">
          <mxGeometry width="50" height="50" relative="1" as="geometry">
            <mxPoint x="1170" y="530" as="sourcePoint" />
            <mxPoint x="1220" y="480" as="targetPoint" />
          </mxGeometry>
        </mxCell>
        <mxCell id="PueT6GZW6PclOlYW9xHa-16" value="&lt;span style=&quot;color: rgb(0, 0, 0); font-family: Helvetica; font-size: 12px; font-style: normal; font-variant-ligatures: normal; font-variant-caps: normal; font-weight: 400; letter-spacing: normal; orphans: 2; text-align: center; text-indent: 0px; text-transform: none; widows: 2; word-spacing: 0px; -webkit-text-stroke-width: 0px; background-color: rgb(248, 249, 250); text-decoration-thickness: initial; text-decoration-style: initial; text-decoration-color: initial; float: none; display: inline !important;&quot;&gt;number of points&lt;/span&gt;" style="text;whiteSpace=wrap;html=1;" parent="1" vertex="1">
          <mxGeometry x="1163" y="690" width="120" height="40" as="geometry" />
        </mxCell>
        <mxCell id="PueT6GZW6PclOlYW9xHa-1" value="team" style="rounded=0;whiteSpace=wrap;html=1;" parent="1" vertex="1">
          <mxGeometry x="1145.5" y="555" width="120" height="60" as="geometry" />
        </mxCell>
        <mxCell id="PueT6GZW6PclOlYW9xHa-18" value="" style="endArrow=none;html=1;rounded=0;exitX=0.5;exitY=1;exitDx=0;exitDy=0;" parent="1" source="7-wcCPyZGdg9CAwQbDir-1" target="PueT6GZW6PclOlYW9xHa-1" edge="1">
          <mxGeometry width="50" height="50" relative="1" as="geometry">
            <mxPoint x="1205.5" y="510" as="sourcePoint" />
            <mxPoint x="1206" y="710" as="targetPoint" />
          </mxGeometry>
        </mxCell>
        <mxCell id="PpF70s9VMHcrfDO1_fEQ-1" value="Paticipation" style="rhombus;whiteSpace=wrap;html=1;" parent="1" vertex="1">
          <mxGeometry x="530" y="150" width="80" height="40" as="geometry" />
        </mxCell>
        <mxCell id="PpF70s9VMHcrfDO1_fEQ-3" value="" style="ellipse;whiteSpace=wrap;html=1;aspect=fixed;" parent="1" vertex="1">
          <mxGeometry x="660" y="210" width="20" height="20" as="geometry" />
        </mxCell>
        <mxCell id="PpF70s9VMHcrfDO1_fEQ-4" value="" style="endArrow=none;html=1;rounded=0;entryX=0.5;entryY=0;entryDx=0;entryDy=0;exitX=0.5;exitY=1;exitDx=0;exitDy=0;" parent="1" source="PpF70s9VMHcrfDO1_fEQ-1" target="PpF70s9VMHcrfDO1_fEQ-3" edge="1">
          <mxGeometry width="50" height="50" relative="1" as="geometry">
            <mxPoint x="500" y="520" as="sourcePoint" />
            <mxPoint x="550" y="470" as="targetPoint" />
          </mxGeometry>
        </mxCell>
        <mxCell id="PpF70s9VMHcrfDO1_fEQ-5" value="&lt;span style=&quot;color: rgb(0, 0, 0); font-family: Helvetica; font-size: 12px; font-style: normal; font-variant-ligatures: normal; font-variant-caps: normal; font-weight: 400; letter-spacing: normal; orphans: 2; text-align: center; text-indent: 0px; text-transform: none; widows: 2; word-spacing: 0px; -webkit-text-stroke-width: 0px; background-color: rgb(248, 249, 250); text-decoration-thickness: initial; text-decoration-style: initial; text-decoration-color: initial; float: none; display: inline !important;&quot;&gt;position each player played&lt;/span&gt;" style="text;whiteSpace=wrap;html=1;" parent="1" vertex="1">
          <mxGeometry x="600" y="230" width="180" height="40" as="geometry" />
        </mxCell>
        <mxCell id="PpF70s9VMHcrfDO1_fEQ-6" value="" style="endArrow=none;html=1;rounded=0;entryX=0;entryY=0.5;entryDx=0;entryDy=0;exitX=1;exitY=0.5;exitDx=0;exitDy=0;" parent="1" source="PpF70s9VMHcrfDO1_fEQ-1" target="Sh0yjSML1Tbc7BXsvag_-16" edge="1">
          <mxGeometry width="50" height="50" relative="1" as="geometry">
            <mxPoint x="430" y="570" as="sourcePoint" />
            <mxPoint x="480" y="520" as="targetPoint" />
          </mxGeometry>
        </mxCell>
        <mxCell id="PpF70s9VMHcrfDO1_fEQ-7" value="" style="endArrow=none;html=1;rounded=0;entryX=0;entryY=0.5;entryDx=0;entryDy=0;exitX=1;exitY=0.5;exitDx=0;exitDy=0;" parent="1" source="JJ1q12JyOulIS_rOJtMa-1" target="PpF70s9VMHcrfDO1_fEQ-1" edge="1">
          <mxGeometry width="50" height="50" relative="1" as="geometry">
            <mxPoint x="430" y="570" as="sourcePoint" />
            <mxPoint x="480" y="520" as="targetPoint" />
          </mxGeometry>
        </mxCell>
        <mxCell id="rgcQuYuOhTgMSIILzDuk-1" value="" style="ellipse;whiteSpace=wrap;html=1;aspect=fixed;" parent="1" vertex="1">
          <mxGeometry x="460" y="210" width="20" height="20" as="geometry" />
        </mxCell>
        <mxCell id="rgcQuYuOhTgMSIILzDuk-2" value="" style="endArrow=none;html=1;rounded=0;entryX=0.5;entryY=1;entryDx=0;entryDy=0;exitX=0.5;exitY=0;exitDx=0;exitDy=0;" parent="1" source="rgcQuYuOhTgMSIILzDuk-1" target="PpF70s9VMHcrfDO1_fEQ-1" edge="1">
          <mxGeometry width="50" height="50" relative="1" as="geometry">
            <mxPoint x="500" y="370" as="sourcePoint" />
            <mxPoint x="550" y="320" as="targetPoint" />
          </mxGeometry>
        </mxCell>
        <mxCell id="czjZb6wSfyygFhQ3jyGZ-1" value="&lt;span style=&quot;color: rgb(0, 0, 0); font-family: Helvetica; font-size: 12px; font-style: normal; font-variant-ligatures: normal; font-variant-caps: normal; font-weight: 400; letter-spacing: normal; orphans: 2; text-align: center; text-indent: 0px; text-transform: none; widows: 2; word-spacing: 0px; -webkit-text-stroke-width: 0px; background-color: rgb(248, 249, 250); text-decoration-thickness: initial; text-decoration-style: initial; text-decoration-color: initial; float: none; display: inline !important;&quot;&gt;whether that team played at home&lt;/span&gt;" style="text;whiteSpace=wrap;html=1;" parent="1" vertex="1">
          <mxGeometry x="370" y="230" width="210" height="40" as="geometry" />
        </mxCell>
        <mxCell id="lFPGz-ydfhMg8ywH7hXj-5" style="edgeStyle=orthogonalEdgeStyle;rounded=0;orthogonalLoop=1;jettySize=auto;html=1;entryX=0;entryY=0.5;entryDx=0;entryDy=0;" edge="1" parent="1" source="lFPGz-ydfhMg8ywH7hXj-4" target="JJ1q12JyOulIS_rOJtMa-1">
          <mxGeometry relative="1" as="geometry" />
        </mxCell>
        <mxCell id="lFPGz-ydfhMg8ywH7hXj-4" value="" style="ellipse;whiteSpace=wrap;html=1;aspect=fixed;" vertex="1" parent="1">
          <mxGeometry x="120" y="410" width="20" height="20" as="geometry" />
        </mxCell>
        <mxCell id="lFPGz-ydfhMg8ywH7hXj-12" style="edgeStyle=orthogonalEdgeStyle;rounded=0;orthogonalLoop=1;jettySize=auto;html=1;entryX=0;entryY=0.5;entryDx=0;entryDy=0;" edge="1" parent="1" source="lFPGz-ydfhMg8ywH7hXj-6" target="JJ1q12JyOulIS_rOJtMa-1">
          <mxGeometry relative="1" as="geometry" />
        </mxCell>
        <mxCell id="lFPGz-ydfhMg8ywH7hXj-6" value="" style="ellipse;whiteSpace=wrap;html=1;aspect=fixed;" vertex="1" parent="1">
          <mxGeometry x="120" y="470" width="20" height="20" as="geometry" />
        </mxCell>
        <mxCell id="lFPGz-ydfhMg8ywH7hXj-7" value="" style="endArrow=none;html=1;rounded=0;entryX=0;entryY=0.5;entryDx=0;entryDy=0;exitX=1;exitY=0.5;exitDx=0;exitDy=0;" edge="1" parent="1" source="lFPGz-ydfhMg8ywH7hXj-8" target="PueT6GZW6PclOlYW9xHa-1">
          <mxGeometry width="50" height="50" relative="1" as="geometry">
            <mxPoint x="560" y="570" as="sourcePoint" />
            <mxPoint x="850" y="260" as="targetPoint" />
          </mxGeometry>
        </mxCell>
        <mxCell id="lFPGz-ydfhMg8ywH7hXj-8" value="Join" style="rhombus;whiteSpace=wrap;html=1;" vertex="1" parent="1">
          <mxGeometry x="220" y="565" width="80" height="40" as="geometry" />
        </mxCell>
        <mxCell id="lFPGz-ydfhMg8ywH7hXj-11" value="" style="endArrow=none;html=1;rounded=0;exitX=0.5;exitY=0;exitDx=0;exitDy=0;entryX=0.5;entryY=1;entryDx=0;entryDy=0;" edge="1" parent="1" source="lFPGz-ydfhMg8ywH7hXj-8" target="JJ1q12JyOulIS_rOJtMa-1">
          <mxGeometry width="50" height="50" relative="1" as="geometry">
            <mxPoint x="800" y="310" as="sourcePoint" />
            <mxPoint x="850" y="260" as="targetPoint" />
          </mxGeometry>
        </mxCell>
        <mxCell id="lFPGz-ydfhMg8ywH7hXj-14" style="edgeStyle=orthogonalEdgeStyle;rounded=0;orthogonalLoop=1;jettySize=auto;html=1;entryX=0;entryY=0.5;entryDx=0;entryDy=0;" edge="1" parent="1" source="lFPGz-ydfhMg8ywH7hXj-13" target="JJ1q12JyOulIS_rOJtMa-1">
          <mxGeometry relative="1" as="geometry" />
        </mxCell>
        <mxCell id="lFPGz-ydfhMg8ywH7hXj-13" value="" style="ellipse;whiteSpace=wrap;html=1;aspect=fixed;" vertex="1" parent="1">
          <mxGeometry x="120" y="530" width="20" height="20" as="geometry" />
        </mxCell>
        <mxCell id="lFPGz-ydfhMg8ywH7hXj-15" value="" style="ellipse;whiteSpace=wrap;html=1;aspect=fixed;" vertex="1" parent="1">
          <mxGeometry x="250" y="620" width="20" height="20" as="geometry" />
        </mxCell>
        <mxCell id="lFPGz-ydfhMg8ywH7hXj-16" value="" style="endArrow=none;html=1;rounded=0;exitX=0.5;exitY=1;exitDx=0;exitDy=0;entryX=0.5;entryY=0;entryDx=0;entryDy=0;" edge="1" parent="1" source="lFPGz-ydfhMg8ywH7hXj-8" target="lFPGz-ydfhMg8ywH7hXj-15">
          <mxGeometry width="50" height="50" relative="1" as="geometry">
            <mxPoint x="800" y="250" as="sourcePoint" />
            <mxPoint x="850" y="200" as="targetPoint" />
          </mxGeometry>
        </mxCell>
        <mxCell id="lFPGz-ydfhMg8ywH7hXj-17" value="home or not" style="text;html=1;strokeColor=none;fillColor=none;align=center;verticalAlign=middle;whiteSpace=wrap;rounded=0;" vertex="1" parent="1">
          <mxGeometry x="230" y="640" width="60" height="30" as="geometry" />
        </mxCell>
        <mxCell id="lFPGz-ydfhMg8ywH7hXj-20" style="edgeStyle=orthogonalEdgeStyle;rounded=0;orthogonalLoop=1;jettySize=auto;html=1;entryX=0;entryY=0.5;entryDx=0;entryDy=0;" edge="1" parent="1" source="lFPGz-ydfhMg8ywH7hXj-19" target="JJ1q12JyOulIS_rOJtMa-1">
          <mxGeometry relative="1" as="geometry" />
        </mxCell>
        <mxCell id="lFPGz-ydfhMg8ywH7hXj-19" value="" style="ellipse;whiteSpace=wrap;html=1;aspect=fixed;" vertex="1" parent="1">
          <mxGeometry x="120" y="590" width="20" height="20" as="geometry" />
        </mxCell>
        <mxCell id="JGpt-_0QTLyatEodbaTH-1" value="series" style="text;html=1;strokeColor=none;fillColor=none;align=center;verticalAlign=middle;whiteSpace=wrap;rounded=0;" vertex="1" parent="1">
          <mxGeometry x="60" y="-5" width="60" height="30" as="geometry" />
        </mxCell>
        <mxCell id="JGpt-_0QTLyatEodbaTH-2" value="&lt;span style=&quot;color: rgb(0, 0, 0); font-family: Helvetica; font-size: 12px; font-style: normal; font-variant-ligatures: normal; font-variant-caps: normal; font-weight: 400; letter-spacing: normal; orphans: 2; text-align: center; text-indent: 0px; text-transform: none; widows: 2; word-spacing: 0px; -webkit-text-stroke-width: 0px; background-color: rgb(248, 249, 250); text-decoration-thickness: initial; text-decoration-style: initial; text-decoration-color: initial; float: none; display: inline !important;&quot;&gt;tournament day&lt;/span&gt;" style="text;whiteSpace=wrap;html=1;" vertex="1" parent="1">
          <mxGeometry x="30" y="60" width="120" height="40" as="geometry" />
        </mxCell>
        <mxCell id="JGpt-_0QTLyatEodbaTH-4" value="&lt;span style=&quot;color: rgb(0, 0, 0); font-family: Helvetica; font-size: 12px; font-style: normal; font-variant-ligatures: normal; font-variant-caps: normal; font-weight: 400; letter-spacing: normal; orphans: 2; text-align: center; text-indent: 0px; text-transform: none; widows: 2; word-spacing: 0px; -webkit-text-stroke-width: 0px; background-color: rgb(248, 249, 250); text-decoration-thickness: initial; text-decoration-style: initial; text-decoration-color: initial; float: none; display: inline !important;&quot;&gt;number of match&lt;/span&gt;" style="text;whiteSpace=wrap;html=1;" vertex="1" parent="1">
          <mxGeometry x="20" y="120" width="120" height="40" as="geometry" />
        </mxCell>
        <mxCell id="JGpt-_0QTLyatEodbaTH-5" value="&lt;span style=&quot;color: rgb(0, 0, 0); font-family: Helvetica; font-size: 12px; font-style: normal; font-variant-ligatures: normal; font-variant-caps: normal; font-weight: 400; letter-spacing: normal; orphans: 2; text-align: center; text-indent: 0px; text-transform: none; widows: 2; word-spacing: 0px; -webkit-text-stroke-width: 0px; background-color: rgb(248, 249, 250); text-decoration-thickness: initial; text-decoration-style: initial; text-decoration-color: initial; float: none; display: inline !important;&quot;&gt;day&lt;/span&gt;" style="text;whiteSpace=wrap;html=1;" vertex="1" parent="1">
          <mxGeometry x="90" y="170" width="50" height="40" as="geometry" />
        </mxCell>
        <mxCell id="JGpt-_0QTLyatEodbaTH-6" value="&lt;span style=&quot;color: rgb(0, 0, 0); font-family: Helvetica; font-size: 12px; font-style: normal; font-variant-ligatures: normal; font-variant-caps: normal; font-weight: 400; letter-spacing: normal; orphans: 2; text-align: center; text-indent: 0px; text-transform: none; widows: 2; word-spacing: 0px; -webkit-text-stroke-width: 0px; background-color: rgb(248, 249, 250); text-decoration-thickness: initial; text-decoration-style: initial; text-decoration-color: initial; float: none; display: inline !important;&quot;&gt;month&lt;/span&gt;" style="text;whiteSpace=wrap;html=1;" vertex="1" parent="1">
          <mxGeometry x="80" y="240" width="70" height="40" as="geometry" />
        </mxCell>
        <mxCell id="JGpt-_0QTLyatEodbaTH-7" value="&lt;span style=&quot;color: rgb(0, 0, 0); font-family: Helvetica; font-size: 12px; font-style: normal; font-variant-ligatures: normal; font-variant-caps: normal; font-weight: 400; letter-spacing: normal; orphans: 2; text-align: center; text-indent: 0px; text-transform: none; widows: 2; word-spacing: 0px; -webkit-text-stroke-width: 0px; background-color: rgb(248, 249, 250); text-decoration-thickness: initial; text-decoration-style: initial; text-decoration-color: initial; float: none; display: inline !important;&quot;&gt;year&lt;/span&gt;" style="text;whiteSpace=wrap;html=1;" vertex="1" parent="1">
          <mxGeometry x="80" y="300" width="60" height="40" as="geometry" />
        </mxCell>
        <mxCell id="JGpt-_0QTLyatEodbaTH-8" value="&lt;span style=&quot;color: rgb(0, 0, 0); font-family: Helvetica; font-size: 12px; font-style: normal; font-variant-ligatures: normal; font-variant-caps: normal; font-weight: 400; letter-spacing: normal; orphans: 2; text-align: center; text-indent: 0px; text-transform: none; widows: 2; word-spacing: 0px; -webkit-text-stroke-width: 0px; background-color: rgb(248, 249, 250); text-decoration-thickness: initial; text-decoration-style: initial; text-decoration-color: initial; float: none; display: inline !important;&quot;&gt;city&lt;/span&gt;" style="text;whiteSpace=wrap;html=1;" vertex="1" parent="1">
          <mxGeometry x="80" y="355" width="50" height="40" as="geometry" />
        </mxCell>
        <mxCell id="JGpt-_0QTLyatEodbaTH-9" value="&lt;span style=&quot;color: rgb(0, 0, 0); font-family: Helvetica; font-size: 12px; font-style: normal; font-variant-ligatures: normal; font-variant-caps: normal; font-weight: 400; letter-spacing: normal; orphans: 2; text-align: center; text-indent: 0px; text-transform: none; widows: 2; word-spacing: 0px; -webkit-text-stroke-width: 0px; background-color: rgb(248, 249, 250); text-decoration-thickness: initial; text-decoration-style: initial; text-decoration-color: initial; float: none; display: inline !important;&quot;&gt;whether&amp;nbsp; postponed&lt;/span&gt;" style="text;whiteSpace=wrap;html=1;" vertex="1" parent="1">
          <mxGeometry x="10" y="410" width="140" height="40" as="geometry" />
        </mxCell>
        <mxCell id="JGpt-_0QTLyatEodbaTH-10" value="&lt;span style=&quot;color: rgb(0, 0, 0); font-family: Helvetica; font-size: 12px; font-style: normal; font-variant-ligatures: normal; font-variant-caps: normal; font-weight: 400; letter-spacing: normal; orphans: 2; text-align: center; text-indent: 0px; text-transform: none; widows: 2; word-spacing: 0px; -webkit-text-stroke-width: 0px; background-color: rgb(248, 249, 250); text-decoration-thickness: initial; text-decoration-style: initial; text-decoration-color: initial; float: none; display: inline !important;&quot;&gt;actual date&lt;/span&gt;" style="text;whiteSpace=wrap;html=1;" vertex="1" parent="1">
          <mxGeometry x="45" y="470" width="90" height="40" as="geometry" />
        </mxCell>
        <mxCell id="JGpt-_0QTLyatEodbaTH-11" value="&lt;span style=&quot;color: rgb(0, 0, 0); font-family: Helvetica; font-size: 12px; font-style: normal; font-variant-ligatures: normal; font-variant-caps: normal; font-weight: 400; letter-spacing: normal; orphans: 2; text-align: center; text-indent: 0px; text-transform: none; widows: 2; word-spacing: 0px; -webkit-text-stroke-width: 0px; background-color: rgb(248, 249, 250); text-decoration-thickness: initial; text-decoration-style: initial; text-decoration-color: initial; float: none; display: inline !important;&quot;&gt;actual&amp;nbsp;&lt;/span&gt;&lt;span style=&quot;color: rgb(0, 0, 0); font-family: Helvetica; font-size: 12px; font-style: normal; font-variant-ligatures: normal; font-variant-caps: normal; font-weight: 400; letter-spacing: normal; orphans: 2; text-align: center; text-indent: 0px; text-transform: none; widows: 2; word-spacing: 0px; -webkit-text-stroke-width: 0px; background-color: rgb(248, 249, 250); text-decoration-thickness: initial; text-decoration-style: initial; text-decoration-color: initial; float: none; display: inline !important;&quot;&gt;home&amp;nbsp;&lt;/span&gt;&lt;span style=&quot;color: rgb(0, 0, 0); font-family: Helvetica; font-size: 12px; font-style: normal; font-variant-ligatures: normal; font-variant-caps: normal; font-weight: 400; letter-spacing: normal; orphans: 2; text-align: center; text-indent: 0px; text-transform: none; widows: 2; word-spacing: 0px; -webkit-text-stroke-width: 0px; background-color: rgb(248, 249, 250); text-decoration-thickness: initial; text-decoration-style: initial; text-decoration-color: initial; float: none; display: inline !important;&quot;&gt;team&lt;/span&gt;" style="text;whiteSpace=wrap;html=1;" vertex="1" parent="1">
          <mxGeometry x="15" y="530" width="105" height="70" as="geometry" />
        </mxCell>
        <mxCell id="JGpt-_0QTLyatEodbaTH-12" value="&lt;span style=&quot;color: rgb(0, 0, 0); font-family: Helvetica; font-size: 12px; font-style: normal; font-variant-ligatures: normal; font-variant-caps: normal; font-weight: 400; letter-spacing: normal; orphans: 2; text-align: center; text-indent: 0px; text-transform: none; widows: 2; word-spacing: 0px; -webkit-text-stroke-width: 0px; background-color: rgb(248, 249, 250); text-decoration-thickness: initial; text-decoration-style: initial; text-decoration-color: initial; float: none; display: inline !important;&quot;&gt;reason&lt;/span&gt;" style="text;whiteSpace=wrap;html=1;" vertex="1" parent="1">
          <mxGeometry x="70" y="590" width="70" height="40" as="geometry" />
        </mxCell>
      </root>
    </mxGraphModel>
  </diagram>
  <diagram id="nZGCGtZbfT4Yh47oZ5DI" name="Page-3">
    <mxGraphModel dx="2840" dy="2833" grid="1" gridSize="10" guides="1" tooltips="1" connect="1" arrows="1" fold="1" page="1" pageScale="1" pageWidth="827" pageHeight="1169" math="0" shadow="0">
      <root>
        <mxCell id="0" />
        <mxCell id="1" parent="0" />
        <mxCell id="OlHGq1eRFnPHMCUmg6J7-1" value="match" style="rounded=0;whiteSpace=wrap;html=1;" vertex="1" parent="1">
          <mxGeometry x="200" y="140" width="120" height="60" as="geometry" />
        </mxCell>
        <mxCell id="OlHGq1eRFnPHMCUmg6J7-2" style="edgeStyle=orthogonalEdgeStyle;rounded=0;orthogonalLoop=1;jettySize=auto;html=1;entryX=0;entryY=0.5;entryDx=0;entryDy=0;" edge="1" parent="1" source="OlHGq1eRFnPHMCUmg6J7-3" target="OlHGq1eRFnPHMCUmg6J7-1">
          <mxGeometry relative="1" as="geometry" />
        </mxCell>
        <mxCell id="OlHGq1eRFnPHMCUmg6J7-3" value="series" style="ellipse;whiteSpace=wrap;html=1;aspect=fixed;" vertex="1" parent="1">
          <mxGeometry x="100" y="-20" width="40" height="40" as="geometry" />
        </mxCell>
        <mxCell id="OlHGq1eRFnPHMCUmg6J7-4" style="edgeStyle=orthogonalEdgeStyle;rounded=0;orthogonalLoop=1;jettySize=auto;html=1;entryX=0;entryY=0.5;entryDx=0;entryDy=0;" edge="1" parent="1" source="OlHGq1eRFnPHMCUmg6J7-5" target="OlHGq1eRFnPHMCUmg6J7-1">
          <mxGeometry relative="1" as="geometry" />
        </mxCell>
        <mxCell id="OlHGq1eRFnPHMCUmg6J7-5" value="tournament day" style="ellipse;whiteSpace=wrap;html=1;aspect=fixed;" vertex="1" parent="1">
          <mxGeometry x="100" y="40" width="40" height="40" as="geometry" />
        </mxCell>
        <mxCell id="OlHGq1eRFnPHMCUmg6J7-6" style="edgeStyle=orthogonalEdgeStyle;rounded=0;orthogonalLoop=1;jettySize=auto;html=1;entryX=0;entryY=0.5;entryDx=0;entryDy=0;" edge="1" parent="1" source="OlHGq1eRFnPHMCUmg6J7-7" target="OlHGq1eRFnPHMCUmg6J7-1">
          <mxGeometry relative="1" as="geometry" />
        </mxCell>
        <mxCell id="OlHGq1eRFnPHMCUmg6J7-7" value="number of match" style="ellipse;whiteSpace=wrap;html=1;aspect=fixed;" vertex="1" parent="1">
          <mxGeometry x="100" y="100" width="40" height="40" as="geometry" />
        </mxCell>
        <mxCell id="OlHGq1eRFnPHMCUmg6J7-8" style="edgeStyle=orthogonalEdgeStyle;rounded=0;orthogonalLoop=1;jettySize=auto;html=1;exitX=1;exitY=0.5;exitDx=0;exitDy=0;entryX=0;entryY=0.5;entryDx=0;entryDy=0;" edge="1" parent="1" source="OlHGq1eRFnPHMCUmg6J7-9" target="OlHGq1eRFnPHMCUmg6J7-1">
          <mxGeometry relative="1" as="geometry" />
        </mxCell>
        <mxCell id="OlHGq1eRFnPHMCUmg6J7-9" value="day" style="ellipse;whiteSpace=wrap;html=1;aspect=fixed;" vertex="1" parent="1">
          <mxGeometry x="100" y="160" width="40" height="40" as="geometry" />
        </mxCell>
        <mxCell id="OlHGq1eRFnPHMCUmg6J7-10" style="edgeStyle=orthogonalEdgeStyle;rounded=0;orthogonalLoop=1;jettySize=auto;html=1;exitX=1;exitY=0.5;exitDx=0;exitDy=0;entryX=0;entryY=0.5;entryDx=0;entryDy=0;" edge="1" parent="1" source="OlHGq1eRFnPHMCUmg6J7-11" target="OlHGq1eRFnPHMCUmg6J7-1">
          <mxGeometry relative="1" as="geometry" />
        </mxCell>
        <mxCell id="OlHGq1eRFnPHMCUmg6J7-11" value="month" style="ellipse;whiteSpace=wrap;html=1;aspect=fixed;" vertex="1" parent="1">
          <mxGeometry x="100" y="220" width="40" height="40" as="geometry" />
        </mxCell>
        <mxCell id="OlHGq1eRFnPHMCUmg6J7-12" style="edgeStyle=orthogonalEdgeStyle;rounded=0;orthogonalLoop=1;jettySize=auto;html=1;exitX=1;exitY=0.5;exitDx=0;exitDy=0;entryX=0;entryY=0.5;entryDx=0;entryDy=0;" edge="1" parent="1" source="OlHGq1eRFnPHMCUmg6J7-13" target="OlHGq1eRFnPHMCUmg6J7-1">
          <mxGeometry relative="1" as="geometry" />
        </mxCell>
        <mxCell id="OlHGq1eRFnPHMCUmg6J7-13" value="city" style="ellipse;whiteSpace=wrap;html=1;aspect=fixed;" vertex="1" parent="1">
          <mxGeometry x="100" y="340" width="40" height="40" as="geometry" />
        </mxCell>
        <mxCell id="OlHGq1eRFnPHMCUmg6J7-14" style="edgeStyle=orthogonalEdgeStyle;rounded=0;orthogonalLoop=1;jettySize=auto;html=1;entryX=0;entryY=0.5;entryDx=0;entryDy=0;" edge="1" parent="1" source="OlHGq1eRFnPHMCUmg6J7-15" target="OlHGq1eRFnPHMCUmg6J7-1">
          <mxGeometry relative="1" as="geometry" />
        </mxCell>
        <mxCell id="OlHGq1eRFnPHMCUmg6J7-15" value="year" style="ellipse;whiteSpace=wrap;html=1;aspect=fixed;" vertex="1" parent="1">
          <mxGeometry x="100" y="280" width="40" height="40" as="geometry" />
        </mxCell>
        <mxCell id="OlHGq1eRFnPHMCUmg6J7-16" value="referee" style="rounded=0;whiteSpace=wrap;html=1;" vertex="1" parent="1">
          <mxGeometry x="710" y="390" width="120" height="60" as="geometry" />
        </mxCell>
        <mxCell id="OlHGq1eRFnPHMCUmg6J7-17" style="edgeStyle=orthogonalEdgeStyle;rounded=0;orthogonalLoop=1;jettySize=auto;html=1;entryX=0.5;entryY=1;entryDx=0;entryDy=0;" edge="1" parent="1" source="OlHGq1eRFnPHMCUmg6J7-18" target="OlHGq1eRFnPHMCUmg6J7-16">
          <mxGeometry relative="1" as="geometry" />
        </mxCell>
        <mxCell id="OlHGq1eRFnPHMCUmg6J7-18" value="" style="ellipse;whiteSpace=wrap;html=1;aspect=fixed;" vertex="1" parent="1">
          <mxGeometry x="700" y="490" width="20" height="20" as="geometry" />
        </mxCell>
        <mxCell id="OlHGq1eRFnPHMCUmg6J7-19" style="edgeStyle=orthogonalEdgeStyle;rounded=0;orthogonalLoop=1;jettySize=auto;html=1;entryX=0.5;entryY=1;entryDx=0;entryDy=0;" edge="1" parent="1" source="OlHGq1eRFnPHMCUmg6J7-20" target="OlHGq1eRFnPHMCUmg6J7-16">
          <mxGeometry relative="1" as="geometry" />
        </mxCell>
        <mxCell id="OlHGq1eRFnPHMCUmg6J7-20" value="" style="ellipse;whiteSpace=wrap;html=1;aspect=fixed;" vertex="1" parent="1">
          <mxGeometry x="827" y="490" width="20" height="20" as="geometry" />
        </mxCell>
        <mxCell id="OlHGq1eRFnPHMCUmg6J7-21" value="coach" style="rounded=0;whiteSpace=wrap;html=1;" vertex="1" parent="1">
          <mxGeometry x="940" y="380" width="120" height="60" as="geometry" />
        </mxCell>
        <mxCell id="OlHGq1eRFnPHMCUmg6J7-22" style="edgeStyle=orthogonalEdgeStyle;rounded=0;orthogonalLoop=1;jettySize=auto;html=1;entryX=0.5;entryY=1;entryDx=0;entryDy=0;" edge="1" parent="1" source="OlHGq1eRFnPHMCUmg6J7-23" target="OlHGq1eRFnPHMCUmg6J7-21">
          <mxGeometry relative="1" as="geometry">
            <Array as="points">
              <mxPoint x="943" y="460" />
              <mxPoint x="1000" y="460" />
            </Array>
          </mxGeometry>
        </mxCell>
        <mxCell id="OlHGq1eRFnPHMCUmg6J7-23" value="" style="ellipse;whiteSpace=wrap;html=1;aspect=fixed;" vertex="1" parent="1">
          <mxGeometry x="932.5" y="490" width="20" height="20" as="geometry" />
        </mxCell>
        <mxCell id="OlHGq1eRFnPHMCUmg6J7-24" style="edgeStyle=orthogonalEdgeStyle;rounded=0;orthogonalLoop=1;jettySize=auto;html=1;entryX=0.5;entryY=1;entryDx=0;entryDy=0;exitX=0.5;exitY=0;exitDx=0;exitDy=0;" edge="1" parent="1" source="OlHGq1eRFnPHMCUmg6J7-25" target="OlHGq1eRFnPHMCUmg6J7-21">
          <mxGeometry relative="1" as="geometry">
            <Array as="points">
              <mxPoint x="1075" y="460" />
              <mxPoint x="1000" y="460" />
            </Array>
          </mxGeometry>
        </mxCell>
        <mxCell id="OlHGq1eRFnPHMCUmg6J7-25" value="" style="ellipse;whiteSpace=wrap;html=1;aspect=fixed;" vertex="1" parent="1">
          <mxGeometry x="1065" y="490" width="20" height="20" as="geometry" />
        </mxCell>
        <mxCell id="OlHGq1eRFnPHMCUmg6J7-26" value="player" style="rounded=0;whiteSpace=wrap;html=1;" vertex="1" parent="1">
          <mxGeometry x="1406" y="377.5" width="120" height="60" as="geometry" />
        </mxCell>
        <mxCell id="OlHGq1eRFnPHMCUmg6J7-27" style="edgeStyle=orthogonalEdgeStyle;rounded=0;orthogonalLoop=1;jettySize=auto;html=1;entryX=0.5;entryY=1;entryDx=0;entryDy=0;" edge="1" parent="1" source="OlHGq1eRFnPHMCUmg6J7-28" target="OlHGq1eRFnPHMCUmg6J7-26">
          <mxGeometry relative="1" as="geometry" />
        </mxCell>
        <mxCell id="OlHGq1eRFnPHMCUmg6J7-28" value="" style="ellipse;whiteSpace=wrap;html=1;aspect=fixed;" vertex="1" parent="1">
          <mxGeometry x="1402" y="490" width="20" height="20" as="geometry" />
        </mxCell>
        <mxCell id="OlHGq1eRFnPHMCUmg6J7-29" style="edgeStyle=orthogonalEdgeStyle;rounded=0;orthogonalLoop=1;jettySize=auto;html=1;entryX=0.5;entryY=1;entryDx=0;entryDy=0;" edge="1" parent="1" source="OlHGq1eRFnPHMCUmg6J7-30" target="OlHGq1eRFnPHMCUmg6J7-26">
          <mxGeometry relative="1" as="geometry" />
        </mxCell>
        <mxCell id="OlHGq1eRFnPHMCUmg6J7-30" value="" style="ellipse;whiteSpace=wrap;html=1;aspect=fixed;" vertex="1" parent="1">
          <mxGeometry x="1472" y="490" width="20" height="20" as="geometry" />
        </mxCell>
        <mxCell id="OlHGq1eRFnPHMCUmg6J7-31" style="edgeStyle=orthogonalEdgeStyle;rounded=0;orthogonalLoop=1;jettySize=auto;html=1;entryX=0.5;entryY=1;entryDx=0;entryDy=0;" edge="1" parent="1" source="OlHGq1eRFnPHMCUmg6J7-32" target="OlHGq1eRFnPHMCUmg6J7-26">
          <mxGeometry relative="1" as="geometry" />
        </mxCell>
        <mxCell id="OlHGq1eRFnPHMCUmg6J7-32" value="" style="ellipse;whiteSpace=wrap;html=1;aspect=fixed;" vertex="1" parent="1">
          <mxGeometry x="1526" y="490" width="20" height="20" as="geometry" />
        </mxCell>
        <mxCell id="OlHGq1eRFnPHMCUmg6J7-33" value="Person" style="rounded=0;whiteSpace=wrap;html=1;" vertex="1" parent="1">
          <mxGeometry x="940" y="140" width="120" height="60" as="geometry" />
        </mxCell>
        <mxCell id="OlHGq1eRFnPHMCUmg6J7-34" value="first name" style="text;html=1;strokeColor=none;fillColor=none;align=center;verticalAlign=middle;whiteSpace=wrap;rounded=0;" vertex="1" parent="1">
          <mxGeometry x="910" y="60" width="60" height="30" as="geometry" />
        </mxCell>
        <mxCell id="OlHGq1eRFnPHMCUmg6J7-35" value="" style="html=1;verticalAlign=bottom;startArrow=circle;startFill=1;endArrow=open;startSize=6;endSize=8;rounded=0;exitX=0.5;exitY=1;exitDx=0;exitDy=0;" edge="1" parent="1" source="OlHGq1eRFnPHMCUmg6J7-34">
          <mxGeometry width="80" relative="1" as="geometry">
            <mxPoint x="930" y="260" as="sourcePoint" />
            <mxPoint x="1000" y="140" as="targetPoint" />
          </mxGeometry>
        </mxCell>
        <mxCell id="OlHGq1eRFnPHMCUmg6J7-36" value="" style="html=1;verticalAlign=bottom;startArrow=circle;startFill=1;endArrow=open;startSize=6;endSize=8;rounded=0;entryX=0.5;entryY=0;entryDx=0;entryDy=0;exitX=0.5;exitY=1;exitDx=0;exitDy=0;" edge="1" parent="1" source="OlHGq1eRFnPHMCUmg6J7-37" target="OlHGq1eRFnPHMCUmg6J7-33">
          <mxGeometry width="80" relative="1" as="geometry">
            <mxPoint x="1050" y="260" as="sourcePoint" />
            <mxPoint x="991.52" y="212.81999999999994" as="targetPoint" />
          </mxGeometry>
        </mxCell>
        <mxCell id="OlHGq1eRFnPHMCUmg6J7-37" value="surname" style="text;html=1;strokeColor=none;fillColor=none;align=center;verticalAlign=middle;whiteSpace=wrap;rounded=0;" vertex="1" parent="1">
          <mxGeometry x="1040" y="60" width="60" height="30" as="geometry" />
        </mxCell>
        <mxCell id="OlHGq1eRFnPHMCUmg6J7-38" style="edgeStyle=orthogonalEdgeStyle;rounded=0;orthogonalLoop=1;jettySize=auto;html=1;entryX=0.5;entryY=1;entryDx=0;entryDy=0;" edge="1" parent="1" source="OlHGq1eRFnPHMCUmg6J7-39" target="OlHGq1eRFnPHMCUmg6J7-33">
          <mxGeometry relative="1" as="geometry" />
        </mxCell>
        <mxCell id="OlHGq1eRFnPHMCUmg6J7-39" value="isA" style="strokeWidth=2;html=1;shape=mxgraph.flowchart.extract_or_measurement;whiteSpace=wrap;" vertex="1" parent="1">
          <mxGeometry x="952.5" y="250" width="95" height="60" as="geometry" />
        </mxCell>
        <mxCell id="OlHGq1eRFnPHMCUmg6J7-40" value="" style="endArrow=none;html=1;rounded=0;entryX=0.5;entryY=1;entryDx=0;entryDy=0;entryPerimeter=0;exitX=0.5;exitY=0;exitDx=0;exitDy=0;" edge="1" parent="1" source="OlHGq1eRFnPHMCUmg6J7-21" target="OlHGq1eRFnPHMCUmg6J7-39">
          <mxGeometry width="50" height="50" relative="1" as="geometry">
            <mxPoint x="1000" y="370" as="sourcePoint" />
            <mxPoint x="1050" y="450" as="targetPoint" />
          </mxGeometry>
        </mxCell>
        <mxCell id="OlHGq1eRFnPHMCUmg6J7-41" value="" style="endArrow=none;html=1;rounded=0;entryX=0.99;entryY=0.97;entryDx=0;entryDy=0;entryPerimeter=0;exitX=0.5;exitY=0;exitDx=0;exitDy=0;" edge="1" parent="1" source="OlHGq1eRFnPHMCUmg6J7-26" target="OlHGq1eRFnPHMCUmg6J7-39">
          <mxGeometry width="50" height="50" relative="1" as="geometry">
            <mxPoint x="1000" y="500" as="sourcePoint" />
            <mxPoint x="1050" y="450" as="targetPoint" />
          </mxGeometry>
        </mxCell>
        <mxCell id="OlHGq1eRFnPHMCUmg6J7-42" value="" style="endArrow=none;html=1;rounded=0;entryX=0.01;entryY=0.97;entryDx=0;entryDy=0;entryPerimeter=0;exitX=0.5;exitY=0;exitDx=0;exitDy=0;" edge="1" parent="1" source="OlHGq1eRFnPHMCUmg6J7-16" target="OlHGq1eRFnPHMCUmg6J7-39">
          <mxGeometry width="50" height="50" relative="1" as="geometry">
            <mxPoint x="840" y="380" as="sourcePoint" />
            <mxPoint x="1050" y="450" as="targetPoint" />
          </mxGeometry>
        </mxCell>
        <mxCell id="OlHGq1eRFnPHMCUmg6J7-43" value="city" style="text;html=1;strokeColor=none;fillColor=none;align=center;verticalAlign=middle;whiteSpace=wrap;rounded=0;" vertex="1" parent="1">
          <mxGeometry x="670" y="500" width="60" height="30" as="geometry" />
        </mxCell>
        <mxCell id="OlHGq1eRFnPHMCUmg6J7-44" value="region of birth" style="text;html=1;strokeColor=none;fillColor=none;align=center;verticalAlign=middle;whiteSpace=wrap;rounded=0;" vertex="1" parent="1">
          <mxGeometry x="812" y="515" width="50" height="15" as="geometry" />
        </mxCell>
        <mxCell id="OlHGq1eRFnPHMCUmg6J7-45" value="salary" style="text;html=1;strokeColor=none;fillColor=none;align=center;verticalAlign=middle;whiteSpace=wrap;rounded=0;" vertex="1" parent="1">
          <mxGeometry x="900" y="500" width="60" height="30" as="geometry" />
        </mxCell>
        <mxCell id="OlHGq1eRFnPHMCUmg6J7-46" value="city of birth" style="text;html=1;strokeColor=none;fillColor=none;align=center;verticalAlign=middle;whiteSpace=wrap;rounded=0;" vertex="1" parent="1">
          <mxGeometry x="1050" y="510" width="50" height="25" as="geometry" />
        </mxCell>
        <mxCell id="OlHGq1eRFnPHMCUmg6J7-47" value="date of birth" style="text;html=1;strokeColor=none;fillColor=none;align=center;verticalAlign=middle;whiteSpace=wrap;rounded=0;" vertex="1" parent="1">
          <mxGeometry x="1390" y="515" width="44" height="15" as="geometry" />
        </mxCell>
        <mxCell id="OlHGq1eRFnPHMCUmg6J7-48" value="main position" style="text;html=1;strokeColor=none;fillColor=none;align=center;verticalAlign=middle;whiteSpace=wrap;rounded=0;" vertex="1" parent="1">
          <mxGeometry x="1456" y="515" width="40" height="15" as="geometry" />
        </mxCell>
        <mxCell id="OlHGq1eRFnPHMCUmg6J7-49" value="&lt;span style=&quot;color: rgb(0, 0, 0); font-family: Helvetica; font-size: 12px; font-style: normal; font-variant-ligatures: normal; font-variant-caps: normal; font-weight: 400; letter-spacing: normal; orphans: 2; text-align: center; text-indent: 0px; text-transform: none; widows: 2; word-spacing: 0px; -webkit-text-stroke-width: 0px; background-color: rgb(248, 249, 250); text-decoration-thickness: initial; text-decoration-style: initial; text-decoration-color: initial; float: none; display: inline !important;&quot;&gt;city of birth&lt;/span&gt;" style="text;whiteSpace=wrap;html=1;" vertex="1" parent="1">
          <mxGeometry x="1526" y="510" width="90" height="40" as="geometry" />
        </mxCell>
        <mxCell id="OlHGq1eRFnPHMCUmg6J7-50" value="contract" style="rhombus;whiteSpace=wrap;html=1;" vertex="1" parent="1">
          <mxGeometry x="1165.5" y="470" width="80" height="40" as="geometry" />
        </mxCell>
        <mxCell id="OlHGq1eRFnPHMCUmg6J7-51" value="" style="ellipse;whiteSpace=wrap;html=1;aspect=fixed;" vertex="1" parent="1">
          <mxGeometry x="1113" y="395" width="25" height="25" as="geometry" />
        </mxCell>
        <mxCell id="OlHGq1eRFnPHMCUmg6J7-52" value="" style="ellipse;whiteSpace=wrap;html=1;aspect=fixed;" vertex="1" parent="1">
          <mxGeometry x="1193" y="395" width="25" height="25" as="geometry" />
        </mxCell>
        <mxCell id="OlHGq1eRFnPHMCUmg6J7-53" value="" style="ellipse;whiteSpace=wrap;html=1;aspect=fixed;" vertex="1" parent="1">
          <mxGeometry x="1273" y="395" width="25" height="25" as="geometry" />
        </mxCell>
        <mxCell id="OlHGq1eRFnPHMCUmg6J7-54" style="edgeStyle=orthogonalEdgeStyle;rounded=0;orthogonalLoop=1;jettySize=auto;html=1;entryX=0.5;entryY=1;entryDx=0;entryDy=0;" edge="1" parent="1" source="OlHGq1eRFnPHMCUmg6J7-55" target="OlHGq1eRFnPHMCUmg6J7-65">
          <mxGeometry relative="1" as="geometry" />
        </mxCell>
        <mxCell id="OlHGq1eRFnPHMCUmg6J7-55" value="" style="ellipse;whiteSpace=wrap;html=1;aspect=fixed;" vertex="1" parent="1">
          <mxGeometry x="1195.5" y="670" width="20" height="20" as="geometry" />
        </mxCell>
        <mxCell id="OlHGq1eRFnPHMCUmg6J7-56" value="&lt;span style=&quot;color: rgb(0, 0, 0); font-family: Helvetica; font-size: 12px; font-style: normal; font-variant-ligatures: normal; font-variant-caps: normal; font-weight: 400; letter-spacing: normal; orphans: 2; text-align: center; text-indent: 0px; text-transform: none; widows: 2; word-spacing: 0px; -webkit-text-stroke-width: 0px; background-color: rgb(248, 249, 250); text-decoration-thickness: initial; text-decoration-style: initial; text-decoration-color: initial; float: none; display: inline !important;&quot;&gt;date of beginning&lt;/span&gt;" style="text;whiteSpace=wrap;html=1;" vertex="1" parent="1">
          <mxGeometry x="1068" y="370" width="130" height="40" as="geometry" />
        </mxCell>
        <mxCell id="OlHGq1eRFnPHMCUmg6J7-57" value="&lt;span style=&quot;color: rgb(0, 0, 0); font-family: Helvetica; font-size: 12px; font-style: normal; font-variant-ligatures: normal; font-variant-caps: normal; font-weight: 400; letter-spacing: normal; orphans: 2; text-align: center; text-indent: 0px; text-transform: none; widows: 2; word-spacing: 0px; -webkit-text-stroke-width: 0px; background-color: rgb(248, 249, 250); text-decoration-thickness: initial; text-decoration-style: initial; text-decoration-color: initial; float: none; display: inline !important;&quot;&gt;end of contract&lt;/span&gt;" style="text;whiteSpace=wrap;html=1;" vertex="1" parent="1">
          <mxGeometry x="1173" y="370" width="110" height="40" as="geometry" />
        </mxCell>
        <mxCell id="OlHGq1eRFnPHMCUmg6J7-58" value="&lt;span style=&quot;color: rgb(0, 0, 0); font-family: Helvetica; font-size: 12px; font-style: normal; font-variant-ligatures: normal; font-variant-caps: normal; font-weight: 400; letter-spacing: normal; orphans: 2; text-align: center; text-indent: 0px; text-transform: none; widows: 2; word-spacing: 0px; -webkit-text-stroke-width: 0px; background-color: rgb(248, 249, 250); text-decoration-thickness: initial; text-decoration-style: initial; text-decoration-color: initial; float: none; display: inline !important;&quot;&gt;commencemenmt date&lt;/span&gt;" style="text;whiteSpace=wrap;html=1;" vertex="1" parent="1">
          <mxGeometry x="1264" y="370" width="170" height="40" as="geometry" />
        </mxCell>
        <mxCell id="OlHGq1eRFnPHMCUmg6J7-59" value="" style="endArrow=none;html=1;rounded=0;entryX=0.5;entryY=1;entryDx=0;entryDy=0;exitX=0.5;exitY=0;exitDx=0;exitDy=0;" edge="1" parent="1" source="OlHGq1eRFnPHMCUmg6J7-50" target="OlHGq1eRFnPHMCUmg6J7-51">
          <mxGeometry width="50" height="50" relative="1" as="geometry">
            <mxPoint x="1218" y="400" as="sourcePoint" />
            <mxPoint x="1268" y="350" as="targetPoint" />
          </mxGeometry>
        </mxCell>
        <mxCell id="OlHGq1eRFnPHMCUmg6J7-60" value="" style="endArrow=none;html=1;rounded=0;exitX=0.5;exitY=1;exitDx=0;exitDy=0;entryX=0.5;entryY=0;entryDx=0;entryDy=0;" edge="1" parent="1" source="OlHGq1eRFnPHMCUmg6J7-52" target="OlHGq1eRFnPHMCUmg6J7-50">
          <mxGeometry width="50" height="50" relative="1" as="geometry">
            <mxPoint x="1218" y="400" as="sourcePoint" />
            <mxPoint x="1208" y="450" as="targetPoint" />
          </mxGeometry>
        </mxCell>
        <mxCell id="OlHGq1eRFnPHMCUmg6J7-61" value="" style="endArrow=none;html=1;rounded=0;entryX=0.5;entryY=1;entryDx=0;entryDy=0;exitX=0.5;exitY=0;exitDx=0;exitDy=0;" edge="1" parent="1" source="OlHGq1eRFnPHMCUmg6J7-50" target="OlHGq1eRFnPHMCUmg6J7-53">
          <mxGeometry width="50" height="50" relative="1" as="geometry">
            <mxPoint x="1208" y="450" as="sourcePoint" />
            <mxPoint x="1268" y="350" as="targetPoint" />
          </mxGeometry>
        </mxCell>
        <mxCell id="OlHGq1eRFnPHMCUmg6J7-62" value="" style="endArrow=none;html=1;rounded=0;exitX=1;exitY=0.75;exitDx=0;exitDy=0;entryX=0;entryY=0.5;entryDx=0;entryDy=0;" edge="1" parent="1" source="OlHGq1eRFnPHMCUmg6J7-21" target="OlHGq1eRFnPHMCUmg6J7-50">
          <mxGeometry width="50" height="50" relative="1" as="geometry">
            <mxPoint x="1170" y="530" as="sourcePoint" />
            <mxPoint x="1220" y="480" as="targetPoint" />
          </mxGeometry>
        </mxCell>
        <mxCell id="OlHGq1eRFnPHMCUmg6J7-63" value="" style="endArrow=none;html=1;rounded=0;entryX=0;entryY=0.75;entryDx=0;entryDy=0;exitX=1;exitY=0.5;exitDx=0;exitDy=0;" edge="1" parent="1" source="OlHGq1eRFnPHMCUmg6J7-50" target="OlHGq1eRFnPHMCUmg6J7-26">
          <mxGeometry width="50" height="50" relative="1" as="geometry">
            <mxPoint x="1170" y="530" as="sourcePoint" />
            <mxPoint x="1220" y="480" as="targetPoint" />
          </mxGeometry>
        </mxCell>
        <mxCell id="OlHGq1eRFnPHMCUmg6J7-64" value="&lt;span style=&quot;color: rgb(0, 0, 0); font-family: Helvetica; font-size: 12px; font-style: normal; font-variant-ligatures: normal; font-variant-caps: normal; font-weight: 400; letter-spacing: normal; orphans: 2; text-align: center; text-indent: 0px; text-transform: none; widows: 2; word-spacing: 0px; -webkit-text-stroke-width: 0px; background-color: rgb(248, 249, 250); text-decoration-thickness: initial; text-decoration-style: initial; text-decoration-color: initial; float: none; display: inline !important;&quot;&gt;number of points&lt;/span&gt;" style="text;whiteSpace=wrap;html=1;" vertex="1" parent="1">
          <mxGeometry x="1163" y="690" width="120" height="40" as="geometry" />
        </mxCell>
        <mxCell id="OlHGq1eRFnPHMCUmg6J7-65" value="team" style="rounded=0;whiteSpace=wrap;html=1;" vertex="1" parent="1">
          <mxGeometry x="1145.5" y="555" width="120" height="60" as="geometry" />
        </mxCell>
        <mxCell id="OlHGq1eRFnPHMCUmg6J7-66" value="" style="endArrow=none;html=1;rounded=0;exitX=0.5;exitY=1;exitDx=0;exitDy=0;" edge="1" parent="1" source="OlHGq1eRFnPHMCUmg6J7-50" target="OlHGq1eRFnPHMCUmg6J7-65">
          <mxGeometry width="50" height="50" relative="1" as="geometry">
            <mxPoint x="1205.5" y="510" as="sourcePoint" />
            <mxPoint x="1206" y="710" as="targetPoint" />
          </mxGeometry>
        </mxCell>
        <mxCell id="OlHGq1eRFnPHMCUmg6J7-67" value="Paticipation" style="rhombus;whiteSpace=wrap;html=1;" vertex="1" parent="1">
          <mxGeometry x="530" y="150" width="80" height="40" as="geometry" />
        </mxCell>
        <mxCell id="OlHGq1eRFnPHMCUmg6J7-68" value="" style="ellipse;whiteSpace=wrap;html=1;aspect=fixed;" vertex="1" parent="1">
          <mxGeometry x="660" y="210" width="20" height="20" as="geometry" />
        </mxCell>
        <mxCell id="OlHGq1eRFnPHMCUmg6J7-69" value="" style="endArrow=none;html=1;rounded=0;entryX=0.5;entryY=0;entryDx=0;entryDy=0;exitX=0.5;exitY=1;exitDx=0;exitDy=0;" edge="1" parent="1" source="OlHGq1eRFnPHMCUmg6J7-67" target="OlHGq1eRFnPHMCUmg6J7-68">
          <mxGeometry width="50" height="50" relative="1" as="geometry">
            <mxPoint x="500" y="520" as="sourcePoint" />
            <mxPoint x="550" y="470" as="targetPoint" />
          </mxGeometry>
        </mxCell>
        <mxCell id="OlHGq1eRFnPHMCUmg6J7-70" value="&lt;span style=&quot;color: rgb(0, 0, 0); font-family: Helvetica; font-size: 12px; font-style: normal; font-variant-ligatures: normal; font-variant-caps: normal; font-weight: 400; letter-spacing: normal; orphans: 2; text-align: center; text-indent: 0px; text-transform: none; widows: 2; word-spacing: 0px; -webkit-text-stroke-width: 0px; background-color: rgb(248, 249, 250); text-decoration-thickness: initial; text-decoration-style: initial; text-decoration-color: initial; float: none; display: inline !important;&quot;&gt;position each player played&lt;/span&gt;" style="text;whiteSpace=wrap;html=1;" vertex="1" parent="1">
          <mxGeometry x="600" y="230" width="180" height="40" as="geometry" />
        </mxCell>
        <mxCell id="OlHGq1eRFnPHMCUmg6J7-71" value="" style="endArrow=none;html=1;rounded=0;entryX=0;entryY=0.5;entryDx=0;entryDy=0;exitX=1;exitY=0.5;exitDx=0;exitDy=0;" edge="1" parent="1" source="OlHGq1eRFnPHMCUmg6J7-67" target="OlHGq1eRFnPHMCUmg6J7-33">
          <mxGeometry width="50" height="50" relative="1" as="geometry">
            <mxPoint x="430" y="570" as="sourcePoint" />
            <mxPoint x="480" y="520" as="targetPoint" />
          </mxGeometry>
        </mxCell>
        <mxCell id="OlHGq1eRFnPHMCUmg6J7-72" value="" style="endArrow=none;html=1;rounded=0;entryX=0;entryY=0.5;entryDx=0;entryDy=0;exitX=1;exitY=0.5;exitDx=0;exitDy=0;" edge="1" parent="1" source="OlHGq1eRFnPHMCUmg6J7-1" target="OlHGq1eRFnPHMCUmg6J7-67">
          <mxGeometry width="50" height="50" relative="1" as="geometry">
            <mxPoint x="430" y="570" as="sourcePoint" />
            <mxPoint x="480" y="520" as="targetPoint" />
          </mxGeometry>
        </mxCell>
        <mxCell id="OlHGq1eRFnPHMCUmg6J7-73" value="" style="ellipse;whiteSpace=wrap;html=1;aspect=fixed;" vertex="1" parent="1">
          <mxGeometry x="460" y="210" width="20" height="20" as="geometry" />
        </mxCell>
        <mxCell id="OlHGq1eRFnPHMCUmg6J7-74" value="" style="endArrow=none;html=1;rounded=0;entryX=0.5;entryY=1;entryDx=0;entryDy=0;exitX=0.5;exitY=0;exitDx=0;exitDy=0;" edge="1" parent="1" source="OlHGq1eRFnPHMCUmg6J7-73" target="OlHGq1eRFnPHMCUmg6J7-67">
          <mxGeometry width="50" height="50" relative="1" as="geometry">
            <mxPoint x="500" y="370" as="sourcePoint" />
            <mxPoint x="550" y="320" as="targetPoint" />
          </mxGeometry>
        </mxCell>
        <mxCell id="OlHGq1eRFnPHMCUmg6J7-75" value="&lt;span style=&quot;color: rgb(0, 0, 0); font-family: Helvetica; font-size: 12px; font-style: normal; font-variant-ligatures: normal; font-variant-caps: normal; font-weight: 400; letter-spacing: normal; orphans: 2; text-align: center; text-indent: 0px; text-transform: none; widows: 2; word-spacing: 0px; -webkit-text-stroke-width: 0px; background-color: rgb(248, 249, 250); text-decoration-thickness: initial; text-decoration-style: initial; text-decoration-color: initial; float: none; display: inline !important;&quot;&gt;whether that team played at home&lt;/span&gt;" style="text;whiteSpace=wrap;html=1;" vertex="1" parent="1">
          <mxGeometry x="370" y="230" width="210" height="40" as="geometry" />
        </mxCell>
        <mxCell id="OlHGq1eRFnPHMCUmg6J7-76" style="edgeStyle=orthogonalEdgeStyle;rounded=0;orthogonalLoop=1;jettySize=auto;html=1;entryX=0;entryY=0.5;entryDx=0;entryDy=0;" edge="1" parent="1" source="OlHGq1eRFnPHMCUmg6J7-77" target="OlHGq1eRFnPHMCUmg6J7-1">
          <mxGeometry relative="1" as="geometry" />
        </mxCell>
        <mxCell id="OlHGq1eRFnPHMCUmg6J7-77" value="whether&amp;nbsp; postponed" style="ellipse;whiteSpace=wrap;html=1;aspect=fixed;" vertex="1" parent="1">
          <mxGeometry x="100" y="390" width="40" height="40" as="geometry" />
        </mxCell>
        <mxCell id="OlHGq1eRFnPHMCUmg6J7-78" style="edgeStyle=orthogonalEdgeStyle;rounded=0;orthogonalLoop=1;jettySize=auto;html=1;entryX=0;entryY=0.5;entryDx=0;entryDy=0;" edge="1" parent="1" source="OlHGq1eRFnPHMCUmg6J7-79" target="OlHGq1eRFnPHMCUmg6J7-1">
          <mxGeometry relative="1" as="geometry" />
        </mxCell>
        <mxCell id="OlHGq1eRFnPHMCUmg6J7-79" value="actual date" style="ellipse;whiteSpace=wrap;html=1;aspect=fixed;" vertex="1" parent="1">
          <mxGeometry x="100" y="450" width="40" height="40" as="geometry" />
        </mxCell>
        <mxCell id="OlHGq1eRFnPHMCUmg6J7-80" value="" style="endArrow=none;html=1;rounded=0;entryX=0;entryY=0.5;entryDx=0;entryDy=0;exitX=1;exitY=0.5;exitDx=0;exitDy=0;" edge="1" parent="1" source="OlHGq1eRFnPHMCUmg6J7-81" target="OlHGq1eRFnPHMCUmg6J7-65">
          <mxGeometry width="50" height="50" relative="1" as="geometry">
            <mxPoint x="560" y="570" as="sourcePoint" />
            <mxPoint x="850" y="260" as="targetPoint" />
          </mxGeometry>
        </mxCell>
        <mxCell id="OlHGq1eRFnPHMCUmg6J7-81" value="Join" style="rhombus;whiteSpace=wrap;html=1;" vertex="1" parent="1">
          <mxGeometry x="220" y="565" width="80" height="40" as="geometry" />
        </mxCell>
        <mxCell id="OlHGq1eRFnPHMCUmg6J7-82" value="" style="endArrow=none;html=1;rounded=0;exitX=0.5;exitY=0;exitDx=0;exitDy=0;entryX=0.5;entryY=1;entryDx=0;entryDy=0;" edge="1" parent="1" source="OlHGq1eRFnPHMCUmg6J7-81" target="OlHGq1eRFnPHMCUmg6J7-1">
          <mxGeometry width="50" height="50" relative="1" as="geometry">
            <mxPoint x="800" y="310" as="sourcePoint" />
            <mxPoint x="850" y="260" as="targetPoint" />
          </mxGeometry>
        </mxCell>
        <mxCell id="OlHGq1eRFnPHMCUmg6J7-83" style="edgeStyle=orthogonalEdgeStyle;rounded=0;orthogonalLoop=1;jettySize=auto;html=1;entryX=0;entryY=0.5;entryDx=0;entryDy=0;" edge="1" parent="1" source="OlHGq1eRFnPHMCUmg6J7-84" target="OlHGq1eRFnPHMCUmg6J7-1">
          <mxGeometry relative="1" as="geometry" />
        </mxCell>
        <mxCell id="OlHGq1eRFnPHMCUmg6J7-84" value="actual&lt;br&gt;home&lt;br&gt;team" style="ellipse;whiteSpace=wrap;html=1;aspect=fixed;" vertex="1" parent="1">
          <mxGeometry x="100" y="510" width="40" height="40" as="geometry" />
        </mxCell>
        <mxCell id="OlHGq1eRFnPHMCUmg6J7-85" value="" style="ellipse;whiteSpace=wrap;html=1;aspect=fixed;" vertex="1" parent="1">
          <mxGeometry x="250" y="620" width="20" height="20" as="geometry" />
        </mxCell>
        <mxCell id="OlHGq1eRFnPHMCUmg6J7-86" value="" style="endArrow=none;html=1;rounded=0;exitX=0.5;exitY=1;exitDx=0;exitDy=0;entryX=0.5;entryY=0;entryDx=0;entryDy=0;" edge="1" parent="1" source="OlHGq1eRFnPHMCUmg6J7-81" target="OlHGq1eRFnPHMCUmg6J7-85">
          <mxGeometry width="50" height="50" relative="1" as="geometry">
            <mxPoint x="800" y="250" as="sourcePoint" />
            <mxPoint x="850" y="200" as="targetPoint" />
          </mxGeometry>
        </mxCell>
        <mxCell id="OlHGq1eRFnPHMCUmg6J7-87" value="home or not" style="text;html=1;strokeColor=none;fillColor=none;align=center;verticalAlign=middle;whiteSpace=wrap;rounded=0;" vertex="1" parent="1">
          <mxGeometry x="230" y="640" width="60" height="30" as="geometry" />
        </mxCell>
        <mxCell id="OlHGq1eRFnPHMCUmg6J7-88" style="edgeStyle=orthogonalEdgeStyle;rounded=0;orthogonalLoop=1;jettySize=auto;html=1;entryX=0;entryY=0.5;entryDx=0;entryDy=0;" edge="1" parent="1" source="OlHGq1eRFnPHMCUmg6J7-89" target="OlHGq1eRFnPHMCUmg6J7-1">
          <mxGeometry relative="1" as="geometry" />
        </mxCell>
        <mxCell id="OlHGq1eRFnPHMCUmg6J7-89" value="reason" style="ellipse;whiteSpace=wrap;html=1;aspect=fixed;" vertex="1" parent="1">
          <mxGeometry x="100" y="570" width="40" height="40" as="geometry" />
        </mxCell>
      </root>
    </mxGraphModel>
  </diagram>
</mxfile>
